<?xml version="1.0" encoding="UTF-8"?>
<svg xmlns="http://www.w3.org/2000/svg" xmlns:xlink="http://www.w3.org/1999/xlink" width="375pt" height="374.999991pt" viewBox="0 0 375 374.999991" version="1.2">
<defs>
<clipPath id="clip1">
  <path d="M 254 6.09375 L 363 6.09375 L 363 116 L 254 116 Z M 254 6.09375 "/>
</clipPath>
<clipPath id="clip2">
  <path d="M 36 332 L 73 332 L 73 369.09375 L 36 369.09375 Z M 36 332 "/>
</clipPath>
</defs>
<g id="surface1">
<path style=" stroke:none;fill-rule:nonzero;fill:rgb(0%,0%,0%);fill-opacity:1;" d="M 187.5 260.324219 C 170.824219 260.324219 157.265625 273.898438 157.265625 290.589844 C 157.265625 307.285156 170.824219 320.855469 187.5 320.855469 C 204.175781 320.855469 217.734375 307.285156 217.734375 290.589844 C 217.734375 273.898438 204.175781 260.324219 187.5 260.324219 "/>
<path style=" stroke:none;fill-rule:nonzero;fill:rgb(0%,0%,0%);fill-opacity:1;" d="M 187.5 127.15625 C 207.507812 127.15625 223.78125 110.863281 223.78125 90.835938 C 223.78125 70.808594 207.507812 54.519531 187.5 54.519531 C 167.492188 54.519531 151.21875 70.808594 151.21875 90.835938 C 151.21875 110.863281 167.492188 127.15625 187.5 127.15625 "/>
<path style=" stroke:none;fill-rule:nonzero;fill:rgb(0%,0%,0%);fill-opacity:1;" d="M 168.273438 173.667969 L 173.375 139.261719 L 159.746094 139.261719 C 161.707031 150.992188 164.539062 162.480469 168.273438 173.667969 "/>
<path style=" stroke:none;fill-rule:nonzero;fill:rgb(0%,0%,0%);fill-opacity:1;" d="M 177.152344 196.246094 C 179.5625 201.542969 182.234375 206.769531 185.042969 211.898438 L 189.957031 211.898438 C 192.839844 206.675781 195.554688 201.355469 197.988281 195.941406 L 189.414062 139.261719 L 185.585938 139.261719 L 177.152344 196.246094 "/>
<path style=" stroke:none;fill-rule:nonzero;fill:rgb(0%,0%,0%);fill-opacity:1;" d="M 206.820312 173.40625 C 210.484375 162.292969 213.292969 150.894531 215.253906 139.261719 L 201.648438 139.261719 L 206.820312 173.40625 "/>
<path style=" stroke:none;fill-rule:nonzero;fill:rgb(0%,0%,0%);fill-opacity:1;" d="M 129.535156 179.175781 C 130.363281 176.929688 131.636719 174.941406 133.078125 173.050781 L 145.171875 163.476562 L 145.171875 221.664062 L 148.078125 218.78125 L 160.996094 226.511719 L 164.636719 211.898438 L 171.320312 211.898438 C 159.652344 189.296875 151.714844 165.175781 147.628906 139.996094 C 128.660156 143.140625 112.269531 156.238281 105.394531 174.613281 L 100.695312 187.191406 L 62.335938 154.277344 C 57.445312 150.09375 49.484375 150.707031 45.28125 155.601562 C 42.660156 158.652344 41.761719 162.695312 42.800781 166.691406 C 43.554688 169.597656 45.5625 171.773438 47.097656 173.097656 L 85.71875 206.25 C 92.6875 212.230469 102.277344 213.578125 110.734375 209.796875 C 116.332031 207.3125 120.9375 202.109375 123.394531 195.5625 L 129.535156 179.175781 "/>
<path style=" stroke:none;fill-rule:nonzero;fill:rgb(0%,0%,0%);fill-opacity:1;" d="M 187.5 332.960938 C 164.164062 332.960938 145.171875 313.953125 145.171875 290.589844 C 145.171875 267.230469 164.164062 248.21875 187.5 248.21875 C 210.835938 248.21875 229.828125 267.230469 229.828125 290.589844 C 229.828125 313.953125 210.835938 332.960938 187.5 332.960938 Z M 236.183594 266.070312 L 244.023438 252.996094 L 225.058594 234.007812 L 211.996094 241.859375 L 205.074219 239.042969 L 203.867188 235.804688 L 200.917969 224.007812 L 174.082031 224.007812 L 170.375 238.855469 L 163.003906 241.859375 L 149.941406 234.007812 L 130.976562 252.996094 L 138.816406 266.070312 L 136.007812 273 L 132.769531 274.203125 L 120.984375 277.160156 L 120.984375 304.019531 L 135.816406 307.734375 L 138.816406 315.109375 L 130.976562 328.164062 L 149.941406 347.171875 L 163.003906 339.324219 L 169.925781 342.136719 L 171.132812 345.375 L 174.082031 357.175781 L 200.917969 357.175781 L 204.625 342.324219 L 211.996094 339.324219 L 225.058594 347.171875 L 244.023438 328.164062 L 236.183594 315.109375 L 238.992188 308.183594 L 242.230469 306.976562 L 254.015625 304.019531 L 254.015625 277.160156 L 239.183594 273.449219 L 236.183594 266.070312 "/>
<path style=" stroke:none;fill-rule:nonzero;fill:rgb(0%,0%,0%);fill-opacity:1;" d="M 327.902344 173.097656 C 329.4375 171.773438 331.445312 169.597656 332.199219 166.691406 C 333.238281 162.695312 332.339844 158.652344 329.71875 155.601562 C 325.515625 150.707031 317.554688 150.09375 312.664062 154.277344 L 274.304688 187.191406 L 269.605469 174.613281 C 262.730469 156.238281 246.339844 143.140625 227.371094 139.996094 C 223.285156 165.175781 215.347656 189.296875 203.679688 211.898438 L 210.363281 211.898438 L 214.003906 226.511719 L 226.921875 218.78125 L 229.828125 221.664062 L 229.828125 163.476562 L 241.921875 173.003906 C 243.386719 174.917969 244.636719 176.929688 245.464844 179.175781 L 251.605469 195.5625 C 254.0625 202.109375 258.667969 207.289062 264.265625 209.796875 C 272.722656 213.578125 282.3125 212.230469 289.257812 206.25 L 327.902344 173.097656 "/>
<g clip-path="url(#clip1)" clip-rule="nonzero">
<path style=" stroke:none;fill-rule:nonzero;fill:rgb(0%,0%,0%);fill-opacity:1;" d="M 314.484375 66.625 L 302.390625 66.625 C 292.375 66.625 284.25 58.492188 284.25 48.464844 L 284.25 30.304688 L 302.390625 30.304688 L 302.390625 18.199219 L 314.484375 18.199219 L 314.484375 30.304688 C 324.5 30.304688 332.625 38.441406 332.625 48.464844 L 320.53125 48.464844 C 320.53125 45.132812 317.816406 42.414062 314.484375 42.414062 L 296.34375 42.414062 L 296.34375 48.464844 C 296.34375 51.800781 299.058594 54.519531 302.390625 54.519531 L 314.484375 54.519531 C 324.5 54.519531 332.625 62.652344 332.625 72.679688 L 332.625 90.835938 L 314.484375 90.835938 L 314.484375 102.945312 L 302.390625 102.945312 L 302.390625 90.835938 C 292.375 90.835938 284.25 82.703125 284.25 72.679688 L 296.34375 72.679688 C 296.34375 76.011719 299.058594 78.730469 302.390625 78.730469 L 320.53125 78.730469 L 320.53125 72.679688 C 320.53125 69.34375 317.816406 66.625 314.484375 66.625 Z M 308.4375 115.050781 C 338.460938 115.050781 362.859375 90.625 362.859375 60.570312 C 362.859375 30.519531 338.460938 6.09375 308.4375 6.09375 C 278.414062 6.09375 254.015625 30.519531 254.015625 60.570312 C 254.015625 90.625 278.414062 115.050781 308.4375 115.050781 "/>
</g>
<path style=" stroke:none;fill-rule:nonzero;fill:rgb(0%,0%,0%);fill-opacity:1;" d="M 24.234375 78.730469 L 24.234375 66.625 L 72.609375 66.625 L 72.609375 78.730469 Z M 24.234375 42.414062 L 96.796875 42.414062 L 96.796875 54.519531 L 24.234375 54.519531 Z M 96.796875 78.730469 L 84.703125 78.730469 L 84.703125 66.625 L 96.796875 66.625 Z M 46.980469 127.15625 C 54.445312 127.15625 60.515625 121.078125 60.515625 113.632812 L 60.515625 102.945312 L 102.84375 102.945312 C 112.859375 102.945312 120.984375 94.808594 120.984375 84.785156 L 120.984375 36.359375 C 120.984375 26.332031 112.859375 18.199219 102.84375 18.199219 L 18.1875 18.199219 C 8.171875 18.199219 0.046875 26.332031 0.046875 36.359375 L 0.046875 84.785156 C 0.046875 94.808594 8.171875 102.945312 18.1875 102.945312 L 26.550781 102.945312 L 34.910156 119.683594 C 37.203125 124.296875 41.855469 127.15625 46.980469 127.15625 "/>
<path style=" stroke:none;fill-rule:nonzero;fill:rgb(0%,0%,0%);fill-opacity:1;" d="M 332.625 317.308594 L 320.53125 305.203125 L 306.664062 319.082031 L 298.117188 310.523438 L 320.53125 288.085938 L 332.625 300.191406 L 346.492188 286.3125 L 355.039062 294.871094 Z M 356.8125 260.324219 L 296.34375 260.324219 C 286.328125 260.324219 278.203125 268.457031 278.203125 278.484375 L 278.203125 326.910156 C 278.203125 336.933594 286.328125 345.070312 296.34375 345.070312 L 356.8125 345.070312 C 366.828125 345.070312 374.953125 336.933594 374.953125 326.910156 L 374.953125 278.484375 C 374.953125 268.457031 366.828125 260.324219 356.8125 260.324219 "/>
<path style=" stroke:none;fill-rule:nonzero;fill:rgb(0%,0%,0%);fill-opacity:1;" d="M 55.507812 254.273438 L 53.429688 254.273438 C 40.675781 254.273438 30.28125 264.675781 30.28125 277.445312 L 30.28125 284.539062 L 42.375 284.539062 L 42.375 277.445312 C 42.375 271.34375 47.335938 266.378906 53.429688 266.378906 L 55.507812 266.378906 C 61.601562 266.378906 66.5625 271.34375 66.5625 277.445312 C 66.5625 280.351562 65.382812 283.214844 63.328125 285.269531 L 48.421875 300.191406 L 48.421875 320.855469 L 60.515625 320.855469 L 60.515625 305.203125 L 71.878906 293.828125 C 76.246094 289.457031 78.65625 283.640625 78.65625 277.445312 C 78.65625 264.675781 68.261719 254.273438 55.507812 254.273438 "/>
<g clip-path="url(#clip2)" clip-rule="nonzero">
<path style=" stroke:none;fill-rule:nonzero;fill:rgb(0%,0%,0%);fill-opacity:1;" d="M 54.46875 332.960938 C 44.453125 332.960938 36.328125 341.097656 36.328125 351.121094 C 36.328125 361.148438 44.453125 369.28125 54.46875 369.28125 C 64.484375 369.28125 72.609375 361.148438 72.609375 351.121094 C 72.609375 341.097656 64.484375 332.960938 54.46875 332.960938 "/>
</g>
</g>
</svg>
