<?xml version="1.0" encoding="UTF-8"?>
<svg xmlns="http://www.w3.org/2000/svg" xmlns:xlink="http://www.w3.org/1999/xlink" width="375pt" height="374.999991pt" viewBox="0 0 375 374.999991" version="1.2">
<g id="surface1">
<path style=" stroke:none;fill-rule:nonzero;fill:rgb(90.19928%,91.369629%,92.939758%);fill-opacity:1;" d="M 151.210938 54.433594 L 151.210938 6.046875 L 284.273438 6.046875 L 284.273438 54.433594 L 229.839844 54.433594 L 193.546875 84.675781 L 193.546875 54.433594 L 151.210938 54.433594 "/>
<path style=" stroke:none;fill-rule:nonzero;fill:rgb(90.19928%,91.369629%,92.939758%);fill-opacity:1;" d="M 229.839844 308.46875 L 229.839844 368.953125 L 205.644531 368.953125 L 193.546875 344.757812 L 96.773438 344.757812 L 84.675781 368.953125 L 60.484375 368.953125 L 60.484375 284.273438 L 229.839844 284.273438 L 229.839844 308.46875 "/>
<path style=" stroke:none;fill-rule:nonzero;fill:rgb(90.19928%,91.369629%,92.939758%);fill-opacity:1;" d="M 229.839844 260.082031 L 229.839844 284.273438 L 60.484375 284.273438 L 60.484375 260.082031 L 229.839844 260.082031 "/>
<path style=" stroke:none;fill-rule:nonzero;fill:rgb(66.668701%,69.799805%,74.119568%);fill-opacity:1;" d="M 247.984375 235.886719 L 247.984375 260.082031 L 48.386719 260.082031 L 48.386719 235.886719 L 247.984375 235.886719 "/>
<path style=" stroke:none;fill-rule:nonzero;fill:rgb(51.368713%,56.079102%,60.778809%);fill-opacity:1;" d="M 193.546875 344.757812 L 205.644531 368.953125 L 84.675781 368.953125 L 96.773438 344.757812 L 193.546875 344.757812 "/>
<path style=" stroke:none;fill-rule:nonzero;fill:rgb(51.368713%,56.079102%,60.778809%);fill-opacity:1;" d="M 296.371094 308.46875 L 302.417969 368.953125 L 278.226562 368.953125 L 272.175781 308.46875 L 296.371094 308.46875 "/>
<path style=" stroke:none;fill-rule:nonzero;fill:rgb(81.17981%,61.959839%,46.269226%);fill-opacity:1;" d="M 332.660156 199.597656 L 332.660156 272.175781 C 332.660156 292.1875 316.382812 308.46875 296.371094 308.46875 L 229.839844 308.46875 L 229.839844 284.273438 L 284.273438 284.273438 C 297.648438 284.273438 308.46875 273.453125 308.46875 260.082031 L 308.46875 199.597656 L 332.660156 199.597656 "/>
<path style=" stroke:none;fill-rule:nonzero;fill:rgb(98.81897%,84.309387%,43.919373%);fill-opacity:1;" d="M 292.613281 191.257812 C 295.046875 188.824219 296.371094 185.5625 296.371094 182.183594 C 296.371094 178.664062 294.929688 175.402344 292.613281 173.113281 C 290.746094 171.292969 288.386719 169.945312 284.273438 169.425781 L 284.273438 169.355469 L 292.613281 169.355469 C 295.09375 169.355469 297.527344 169.898438 299.703125 171.054688 C 305.089844 173.703125 308.46875 179.207031 308.46875 185.207031 L 308.46875 260.082031 C 308.46875 273.453125 297.648438 284.273438 284.273438 284.273438 L 229.839844 284.273438 L 229.839844 260.082031 L 247.984375 260.082031 L 247.984375 235.886719 L 245.503906 235.886719 C 247.0625 235.886719 248.644531 235.226562 249.730469 234.140625 L 292.613281 191.257812 "/>
<path style=" stroke:none;fill-rule:nonzero;fill:rgb(41.178894%,83.918762%,95.689392%);fill-opacity:1;" d="M 181.453125 235.886719 L 72.582031 235.886719 L 72.582031 207.226562 C 72.582031 199.101562 77.96875 192.035156 85.765625 189.792969 L 114.917969 181.453125 C 114.917969 181.453125 120.96875 193.546875 133.066406 193.546875 C 145.160156 193.546875 151.210938 181.453125 151.210938 181.453125 L 180.363281 189.792969 C 188.160156 192.035156 193.546875 199.101562 193.546875 207.226562 L 193.546875 211.695312 L 181.453125 211.695312 C 178.121094 211.695312 175.097656 213.015625 172.921875 215.261719 C 170.679688 217.433594 169.355469 220.457031 169.355469 223.789062 C 169.355469 230.429688 174.8125 235.886719 181.453125 235.886719 "/>
<path style=" stroke:none;fill-rule:nonzero;fill:rgb(94.119263%,81.568909%,70.588684%);fill-opacity:1;" d="M 284.273438 169.425781 C 288.386719 169.945312 290.746094 171.292969 292.613281 173.113281 C 294.929688 175.402344 296.371094 178.664062 296.371094 182.183594 C 296.371094 185.5625 295.046875 188.824219 292.613281 191.257812 L 249.730469 234.140625 C 248.644531 235.226562 247.0625 235.886719 245.503906 235.886719 L 181.453125 235.886719 C 174.8125 235.886719 169.355469 230.429688 169.355469 223.789062 C 169.355469 220.457031 170.679688 217.433594 172.921875 215.261719 C 175.097656 213.015625 178.121094 211.695312 181.453125 211.695312 L 235.886719 211.695312 L 274.46875 173.113281 C 276.902344 170.679688 280.164062 169.355469 283.542969 169.355469 C 283.777344 169.355469 284.039062 169.355469 284.273438 169.425781 "/>
<path style=" stroke:none;fill-rule:nonzero;fill:rgb(94.119263%,81.568909%,70.588684%);fill-opacity:1;" d="M 308.46875 127.015625 L 308.46875 139.113281 C 308.46875 155.816406 294.929688 169.355469 278.226562 169.355469 C 261.523438 169.355469 247.984375 155.816406 247.984375 139.113281 L 247.984375 127.015625 C 247.984375 110.3125 261.523438 96.773438 278.226562 96.773438 C 286.566406 96.773438 294.125 100.152344 299.632812 105.609375 C 305.089844 111.117188 308.46875 118.675781 308.46875 127.015625 "/>
<path style=" stroke:none;fill-rule:nonzero;fill:rgb(94.119263%,81.568909%,70.588684%);fill-opacity:1;" d="M 114.917969 163.304688 C 119.953125 167.109375 126.238281 169.355469 133.066406 169.355469 C 139.890625 169.355469 146.175781 167.109375 151.210938 163.304688 L 151.210938 181.453125 C 151.210938 181.453125 145.160156 193.546875 133.066406 193.546875 C 120.96875 193.546875 114.917969 181.453125 114.917969 181.453125 L 114.917969 163.304688 "/>
<path style=" stroke:none;fill-rule:nonzero;fill:rgb(94.119263%,81.568909%,70.588684%);fill-opacity:1;" d="M 163.304688 127.015625 L 163.304688 139.113281 C 163.304688 148.964844 158.535156 157.800781 151.210938 163.304688 C 146.175781 167.109375 139.890625 169.355469 133.066406 169.355469 C 126.238281 169.355469 119.953125 167.109375 114.917969 163.304688 C 107.59375 157.800781 102.824219 148.964844 102.824219 139.113281 L 102.824219 127.015625 C 102.824219 110.3125 116.359375 96.773438 133.066406 96.773438 C 141.40625 96.773438 148.964844 100.152344 154.46875 105.609375 C 159.929688 111.117188 163.304688 118.675781 163.304688 127.015625 "/>
<path style=" stroke:none;fill-rule:nonzero;fill:rgb(0%,0%,0%);fill-opacity:1;" d="M 157.257812 48.386719 L 157.257812 12.097656 L 278.226562 12.097656 L 278.226562 48.386719 L 227.640625 48.386719 L 199.597656 71.753906 L 199.597656 48.386719 Z M 187.5 97.601562 L 232.035156 60.484375 L 290.324219 60.484375 L 290.324219 0 L 145.160156 0 L 145.160156 60.484375 L 187.5 60.484375 L 187.5 97.601562 "/>
<path style=" stroke:none;fill-rule:nonzero;fill:rgb(0%,0%,0%);fill-opacity:1;" d="M 169.355469 36.289062 L 181.453125 36.289062 L 181.453125 24.195312 L 169.355469 24.195312 L 169.355469 36.289062 "/>
<path style=" stroke:none;fill-rule:nonzero;fill:rgb(0%,0%,0%);fill-opacity:1;" d="M 241.933594 24.195312 L 193.546875 24.195312 L 193.546875 36.289062 L 241.933594 36.289062 L 241.933594 24.195312 "/>
<path style=" stroke:none;fill-rule:nonzero;fill:rgb(0%,0%,0%);fill-opacity:1;" d="M 266.128906 24.195312 L 254.03125 24.195312 L 254.03125 36.289062 L 266.128906 36.289062 L 266.128906 24.195312 "/>
<path style=" stroke:none;fill-rule:nonzero;fill:rgb(0%,0%,0%);fill-opacity:1;" d="M 195.863281 362.902344 L 94.457031 362.902344 L 100.507812 350.804688 L 189.816406 350.804688 Z M 66.53125 290.324219 L 84.675781 290.324219 L 84.675781 278.226562 L 66.53125 278.226562 L 66.53125 266.128906 L 223.789062 266.128906 L 223.789062 278.226562 L 96.773438 278.226562 L 96.773438 290.324219 L 223.789062 290.324219 L 223.789062 362.902344 L 209.378906 362.902344 L 197.28125 338.710938 L 93.042969 338.710938 L 80.945312 362.902344 L 66.53125 362.902344 Z M 54.433594 241.933594 L 241.933594 241.933594 L 241.933594 254.03125 L 54.433594 254.03125 Z M 78.628906 207.226562 C 78.628906 201.863281 82.242188 197.09375 87.394531 195.605469 L 112.320312 188.46875 C 115.839844 193.050781 122.644531 199.597656 133.066406 199.597656 C 143.484375 199.597656 150.289062 193.050781 153.808594 188.46875 L 178.734375 195.605469 C 183.367188 196.925781 186.578125 200.945312 187.238281 205.644531 L 181.453125 205.644531 C 171.433594 205.644531 163.304688 213.773438 163.304688 223.789062 C 163.304688 225.917969 163.753906 227.925781 164.417969 229.839844 L 78.628906 229.839844 Z M 133.066406 175.402344 C 137.316406 175.402344 141.355469 174.625 145.160156 173.300781 L 145.160156 179.773438 C 143.671875 182.089844 139.492188 187.5 133.066406 187.5 C 126.636719 187.5 122.457031 182.089844 120.96875 179.773438 L 120.96875 173.300781 C 124.773438 174.625 128.8125 175.402344 133.066406 175.402344 Z M 108.871094 127.015625 C 108.871094 113.667969 119.714844 102.824219 133.066406 102.824219 C 146.414062 102.824219 157.257812 113.667969 157.257812 127.015625 L 157.257812 139.113281 C 157.257812 152.460938 146.414062 163.304688 133.066406 163.304688 C 119.714844 163.304688 108.871094 152.460938 108.871094 139.113281 Z M 238.390625 217.742188 L 278.746094 177.386719 C 279.996094 176.113281 281.769531 175.402344 283.542969 175.402344 C 287.273438 175.402344 290.324219 178.449219 290.324219 182.183594 C 290.324219 183.957031 289.613281 185.726562 288.339844 186.980469 L 245.480469 229.839844 L 181.453125 229.839844 C 178.121094 229.839844 175.402344 227.121094 175.402344 223.789062 C 175.402344 220.457031 178.121094 217.742188 181.453125 217.742188 Z M 254.03125 139.113281 L 254.03125 127.015625 C 254.03125 113.667969 264.875 102.824219 278.226562 102.824219 C 291.574219 102.824219 302.417969 113.667969 302.417969 127.015625 L 302.417969 139.113281 C 302.417969 152.460938 291.574219 163.304688 278.226562 163.304688 C 264.875 163.304688 254.03125 152.460938 254.03125 139.113281 Z M 314.515625 260.082031 L 314.515625 205.644531 L 326.613281 205.644531 L 326.613281 272.175781 C 326.613281 288.859375 313.050781 302.417969 296.371094 302.417969 L 235.886719 302.417969 L 235.886719 290.324219 L 284.273438 290.324219 C 300.953125 290.324219 314.515625 276.761719 314.515625 260.082031 Z M 278.863281 314.515625 L 290.890625 314.515625 L 295.734375 362.902344 L 283.707031 362.902344 Z M 235.886719 314.515625 L 266.695312 314.515625 L 271.539062 362.902344 L 235.886719 362.902344 Z M 254.03125 266.128906 L 254.03125 238.390625 L 296.890625 195.53125 C 299.984375 192.4375 301.828125 188.28125 302.230469 183.933594 C 302.300781 184.359375 302.417969 184.757812 302.417969 185.183594 L 302.417969 260.082031 C 302.417969 270.097656 294.292969 278.226562 284.273438 278.226562 L 235.886719 278.226562 L 235.886719 266.128906 Z M 307.902344 362.902344 L 302.988281 313.949219 C 323.1875 310.757812 338.710938 293.253906 338.710938 272.175781 L 338.710938 193.546875 L 314.515625 193.546875 L 314.515625 185.183594 C 314.515625 176.984375 310.003906 169.589844 302.726562 165.789062 C 309.957031 159.171875 314.515625 149.675781 314.515625 139.113281 L 314.515625 127.015625 C 314.515625 107.003906 298.238281 90.726562 278.226562 90.726562 C 258.214844 90.726562 241.933594 107.003906 241.933594 127.015625 L 241.933594 139.113281 C 241.933594 154.777344 251.929688 168.101562 265.84375 173.183594 L 233.382812 205.644531 L 199.453125 205.644531 C 198.792969 195.554688 191.847656 186.765625 182.042969 183.957031 L 157.257812 176.890625 L 157.257812 166.09375 C 164.652344 159.433594 169.355469 149.839844 169.355469 139.113281 L 169.355469 127.015625 C 169.355469 107.003906 153.074219 90.726562 133.066406 90.726562 C 113.054688 90.726562 96.773438 107.003906 96.773438 127.015625 L 96.773438 139.113281 C 96.773438 149.839844 101.476562 159.433594 108.871094 166.09375 L 108.871094 176.890625 L 84.085938 183.957031 C 73.761719 186.933594 66.53125 196.476562 66.53125 207.226562 L 66.53125 229.839844 L 42.339844 229.839844 L 42.339844 266.128906 L 54.433594 266.128906 L 54.433594 362.902344 L 0 362.902344 L 0 375 L 375 375 L 375 362.902344 L 307.902344 362.902344 "/>
</g>
</svg>
