<?xml version="1.0" encoding="UTF-8"?>
<svg xmlns="http://www.w3.org/2000/svg" xmlns:xlink="http://www.w3.org/1999/xlink" width="375pt" height="374.999991pt" viewBox="0 0 375 374.999991" version="1.2">
<defs>
<clipPath id="clip1">
  <path d="M 44.246094 0 L 297 0 L 297 336 L 44.246094 336 Z M 44.246094 0 "/>
</clipPath>
<clipPath id="clip2">
  <path d="M 222 243 L 362.996094 243 L 362.996094 375 L 222 375 Z M 222 243 "/>
</clipPath>
</defs>
<g id="surface1">
<path style=" stroke:none;fill-rule:nonzero;fill:rgb(6.269836%,5.879211%,5.099487%);fill-opacity:1;" d="M 260.269531 253.492188 C 257.851562 253.492188 255.890625 251.527344 255.890625 249.109375 C 255.890625 242.546875 254.21875 236.425781 251.070312 231.386719 C 249.253906 228.484375 247.054688 225.996094 244.566406 223.988281 C 232.597656 214.363281 201.148438 197.269531 200.824219 197.109375 C 198.703125 195.953125 197.910156 193.300781 199.066406 191.175781 C 200.226562 189.039062 202.875 188.261719 205 189.402344 C 206.320312 190.121094 237.460938 207.039062 250.042969 217.164062 C 253.3125 219.785156 256.152344 223.007812 258.480469 226.742188 C 262.511719 233.171875 264.632812 240.90625 264.632812 249.109375 C 264.632812 251.527344 262.6875 253.492188 260.269531 253.492188 "/>
<path style=" stroke:none;fill-rule:nonzero;fill:rgb(6.269836%,5.879211%,5.099487%);fill-opacity:1;" d="M 81.117188 284.339844 C 78.703125 284.339844 76.738281 282.378906 76.738281 279.960938 L 76.738281 249.109375 C 76.738281 240.90625 78.878906 233.171875 82.90625 226.742188 C 85.234375 223.007812 88.078125 219.785156 91.34375 217.164062 C 103.925781 207.039062 135.070312 190.121094 136.386719 189.402344 C 138.496094 188.261719 141.164062 189.039062 142.320312 191.175781 C 143.460938 193.300781 142.6875 195.953125 140.546875 197.109375 C 140.238281 197.269531 108.789062 214.363281 96.820312 223.988281 C 94.316406 225.996094 92.132812 228.484375 90.316406 231.386719 C 87.167969 236.425781 85.5 242.546875 85.5 249.109375 L 85.5 279.960938 C 85.5 282.378906 83.535156 284.339844 81.117188 284.339844 "/>
<path style=" stroke:none;fill-rule:nonzero;fill:rgb(6.269836%,5.879211%,5.099487%);fill-opacity:1;" d="M 170.695312 102.449219 C 148.238281 102.449219 129.972656 125.609375 129.972656 154.085938 C 129.972656 182.546875 148.238281 205.707031 170.695312 205.707031 C 193.148438 205.707031 211.417969 182.546875 211.417969 154.085938 C 211.417969 125.609375 193.148438 102.449219 170.695312 102.449219 Z M 170.695312 214.46875 C 143.417969 214.46875 121.226562 187.382812 121.226562 154.085938 C 121.226562 120.789062 143.417969 93.691406 170.695312 93.691406 C 197.96875 93.691406 220.160156 120.789062 220.160156 154.085938 C 220.160156 187.382812 197.96875 214.46875 170.695312 214.46875 "/>
<g clip-path="url(#clip1)" clip-rule="nonzero">
<path style=" stroke:none;fill-rule:nonzero;fill:rgb(6.269836%,5.879211%,5.099487%);fill-opacity:1;" d="M 226.898438 335.15625 L 69.984375 335.15625 C 55.996094 335.15625 44.628906 323.789062 44.628906 309.800781 L 44.628906 30.191406 C 44.628906 13.550781 58.179688 0 74.820312 0 L 266.566406 0 C 283.207031 0 296.757812 13.550781 296.757812 30.191406 L 296.757812 270.9375 C 296.757812 273.355469 294.796875 275.316406 292.378906 275.316406 C 289.960938 275.316406 288 273.355469 288 270.9375 L 288 30.191406 C 288 18.371094 278.390625 8.746094 266.566406 8.746094 L 74.820312 8.746094 C 63 8.746094 53.375 18.371094 53.375 30.191406 L 53.375 309.800781 C 53.375 318.953125 60.832031 326.410156 69.984375 326.410156 L 226.898438 326.410156 C 229.316406 326.410156 231.28125 328.375 231.28125 330.789062 C 231.28125 333.207031 229.316406 335.15625 226.898438 335.15625 "/>
</g>
<path style=" stroke:none;fill-rule:nonzero;fill:rgb(6.269836%,5.879211%,5.099487%);fill-opacity:1;" d="M 201.777344 35.332031 L 139.609375 35.332031 C 129.488281 35.332031 121.269531 27.097656 121.269531 16.992188 L 121.269531 4.378906 C 121.269531 1.964844 123.234375 0 125.648438 0 C 128.066406 0 130.015625 1.964844 130.015625 4.378906 L 130.015625 16.992188 C 130.015625 22.28125 134.320312 26.574219 139.609375 26.574219 L 201.777344 26.574219 C 207.066406 26.574219 211.359375 22.28125 211.359375 16.992188 L 211.359375 4.378906 C 211.359375 1.964844 213.320312 0 215.738281 0 C 218.15625 0 220.117188 1.964844 220.117188 4.378906 L 220.117188 16.992188 C 220.117188 27.097656 211.886719 35.332031 201.777344 35.332031 "/>
<g clip-path="url(#clip2)" clip-rule="nonzero">
<path style=" stroke:none;fill-rule:nonzero;fill:rgb(6.269836%,5.879211%,5.099487%);fill-opacity:1;" d="M 231.28125 258.617188 L 231.28125 346.433594 C 231.28125 357.363281 240.171875 366.253906 251.097656 366.253906 L 333.671875 366.253906 C 344.601562 366.253906 353.492188 357.363281 353.492188 346.433594 L 353.492188 295.136719 C 353.492188 284.207031 344.601562 275.316406 333.671875 275.316406 L 250.234375 275.316406 C 249.09375 275.316406 248.007812 274.863281 247.1875 274.070312 Z M 333.671875 375 L 251.097656 375 C 235.335938 375 222.519531 362.183594 222.519531 346.433594 L 222.519531 248.277344 C 222.519531 246.519531 223.574219 244.921875 225.199219 244.246094 C 226.8125 243.558594 228.6875 243.910156 229.945312 245.125 L 252.007812 266.558594 L 333.671875 266.558594 C 349.417969 266.558594 362.238281 279.375 362.238281 295.136719 L 362.238281 346.433594 C 362.238281 362.183594 349.417969 375 333.671875 375 "/>
</g>
<path style=" stroke:none;fill-rule:nonzero;fill:rgb(6.269836%,5.879211%,5.099487%);fill-opacity:1;" d="M 267.871094 312.964844 C 264.488281 312.964844 261.71875 315.71875 261.71875 319.101562 C 261.71875 322.484375 264.488281 325.238281 267.871094 325.238281 C 271.253906 325.238281 274.007812 322.484375 274.007812 319.101562 C 274.007812 315.71875 271.253906 312.964844 267.871094 312.964844 "/>
<path style=" stroke:none;fill-rule:nonzero;fill:rgb(6.269836%,5.879211%,5.099487%);fill-opacity:1;" d="M 292.378906 312.964844 C 288.996094 312.964844 286.242188 315.71875 286.242188 319.101562 C 286.242188 322.484375 288.996094 325.238281 292.378906 325.238281 C 295.761719 325.238281 298.515625 322.484375 298.515625 319.101562 C 298.515625 315.71875 295.761719 312.964844 292.378906 312.964844 "/>
<path style=" stroke:none;fill-rule:nonzero;fill:rgb(6.269836%,5.879211%,5.099487%);fill-opacity:1;" d="M 316.898438 312.964844 C 313.515625 312.964844 310.761719 315.71875 310.761719 319.101562 C 310.761719 322.484375 313.515625 325.238281 316.898438 325.238281 C 320.285156 325.238281 323.039062 322.484375 323.039062 319.101562 C 323.039062 315.71875 320.285156 312.964844 316.898438 312.964844 "/>
</g>
</svg>
