<?xml version="1.0" encoding="UTF-8"?>
<svg xmlns="http://www.w3.org/2000/svg" xmlns:xlink="http://www.w3.org/1999/xlink" width="375pt" height="374.999991pt" viewBox="0 0 375 374.999991" version="1.2">
<defs>
<clipPath id="clip1">
  <path d="M 5.523438 30.089844 L 369.074219 30.089844 L 369.074219 345.089844 L 5.523438 345.089844 Z M 5.523438 30.089844 "/>
</clipPath>
</defs>
<g id="surface1">
<g clip-path="url(#clip1)" clip-rule="nonzero">
<path style=" stroke:none;fill-rule:nonzero;fill:rgb(13.729858%,12.159729%,12.548828%);fill-opacity:1;" d="M 263.472656 336.933594 C 209.839844 336.933594 166.203125 293.199219 166.203125 239.441406 C 166.203125 185.6875 209.839844 141.953125 263.472656 141.953125 C 317.105469 141.953125 360.742188 185.6875 360.742188 239.441406 C 360.742188 293.199219 317.105469 336.933594 263.472656 336.933594 Z M 21.972656 277.859375 C 18.050781 277.859375 14.855469 274.65625 14.855469 270.71875 L 14.855469 87.734375 L 278.554688 87.734375 L 278.554688 134.6875 C 273.628906 133.976562 268.59375 133.601562 263.472656 133.601562 C 220.652344 133.601562 183.703125 159.28125 167.144531 196.078125 L 158.734375 196.078125 L 158.734375 204.433594 L 163.816406 204.433594 C 159.972656 215.398438 157.871094 227.179688 157.871094 239.441406 C 157.871094 252.988281 160.425781 265.941406 165.074219 277.859375 Z M 21.972656 48.4375 L 32.058594 48.4375 L 32.058594 57.527344 L 40.394531 57.527344 L 40.394531 48.4375 L 59.679688 48.4375 L 59.679688 57.527344 L 68.011719 57.527344 L 68.011719 48.4375 L 87.300781 48.4375 L 87.300781 57.527344 L 95.632812 57.527344 L 95.632812 48.4375 L 114.917969 48.4375 L 114.917969 57.527344 L 123.25 57.527344 L 123.25 48.4375 L 142.539062 48.4375 L 142.539062 57.527344 L 150.871094 57.527344 L 150.871094 48.4375 L 170.160156 48.4375 L 170.160156 57.527344 L 178.492188 57.527344 L 178.492188 48.4375 L 197.777344 48.4375 L 197.777344 57.527344 L 206.109375 57.527344 L 206.109375 48.4375 L 225.394531 48.4375 L 225.394531 57.527344 L 233.730469 57.527344 L 233.730469 48.4375 L 253.011719 48.4375 L 253.011719 57.527344 L 261.347656 57.527344 L 261.347656 48.4375 L 271.4375 48.4375 C 275.359375 48.4375 278.554688 51.636719 278.554688 55.570312 L 278.554688 80.046875 L 14.855469 80.046875 L 14.855469 55.570312 C 14.855469 51.636719 18.050781 48.4375 21.972656 48.4375 Z M 287.8125 136.441406 L 287.8125 55.570312 C 287.8125 46.519531 280.46875 39.15625 271.4375 39.15625 L 261.347656 39.15625 L 261.347656 30.0625 L 253.011719 30.0625 L 253.011719 39.15625 L 233.730469 39.15625 L 233.730469 30.0625 L 225.394531 30.0625 L 225.394531 39.15625 L 206.109375 39.15625 L 206.109375 30.0625 L 197.777344 30.0625 L 197.777344 39.15625 L 178.492188 39.15625 L 178.492188 30.0625 L 170.160156 30.0625 L 170.160156 39.15625 L 150.871094 39.15625 L 150.871094 30.0625 L 142.539062 30.0625 L 142.539062 39.15625 L 123.25 39.15625 L 123.25 30.0625 L 114.917969 30.0625 L 114.917969 39.15625 L 95.632812 39.15625 L 95.632812 30.0625 L 87.300781 30.0625 L 87.300781 39.15625 L 68.011719 39.15625 L 68.011719 30.0625 L 59.679688 30.0625 L 59.679688 39.15625 L 40.394531 39.15625 L 40.394531 30.0625 L 32.058594 30.0625 L 32.058594 39.15625 L 21.972656 39.15625 C 12.941406 39.15625 5.59375 46.519531 5.59375 55.570312 L 5.59375 270.71875 C 5.59375 279.773438 12.941406 287.140625 21.972656 287.140625 L 169.21875 287.140625 C 186.648438 321.605469 222.355469 345.289062 263.472656 345.289062 C 321.703125 345.289062 369.078125 297.804688 369.078125 239.441406 C 369.078125 189.472656 334.347656 147.488281 287.8125 136.441406 "/>
</g>
<path style=" stroke:none;fill-rule:nonzero;fill:rgb(13.729858%,12.159729%,12.548828%);fill-opacity:1;" d="M 263.472656 159.742188 C 264.789062 159.742188 265.851562 158.675781 265.851562 157.359375 L 265.851562 151.546875 C 265.851562 150.230469 264.789062 149.164062 263.472656 149.164062 C 262.160156 149.164062 261.097656 150.230469 261.097656 151.546875 L 261.097656 157.359375 C 261.097656 158.675781 262.160156 159.742188 263.472656 159.742188 "/>
<path style=" stroke:none;fill-rule:nonzero;fill:rgb(13.729858%,12.159729%,12.548828%);fill-opacity:1;" d="M 263.472656 319.148438 C 262.160156 319.148438 261.097656 320.214844 261.097656 321.53125 L 261.097656 327.34375 C 261.097656 328.65625 262.160156 329.722656 263.472656 329.722656 C 264.789062 329.722656 265.851562 328.65625 265.851562 327.34375 L 265.851562 321.53125 C 265.851562 320.214844 264.789062 319.148438 263.472656 319.148438 "/>
<path style=" stroke:none;fill-rule:nonzero;fill:rgb(13.729858%,12.159729%,12.548828%);fill-opacity:1;" d="M 351.167969 237.0625 L 345.371094 237.0625 C 344.058594 237.0625 342.992188 238.125 342.992188 239.441406 C 342.992188 240.757812 344.058594 241.824219 345.371094 241.824219 L 351.167969 241.824219 C 352.480469 241.824219 353.550781 240.757812 353.550781 239.441406 C 353.550781 238.125 352.480469 237.0625 351.167969 237.0625 "/>
<path style=" stroke:none;fill-rule:nonzero;fill:rgb(13.729858%,12.159729%,12.548828%);fill-opacity:1;" d="M 181.578125 237.0625 L 175.777344 237.0625 C 174.464844 237.0625 173.398438 238.125 173.398438 239.441406 C 173.398438 240.757812 174.464844 241.824219 175.777344 241.824219 L 181.578125 241.824219 C 182.890625 241.824219 183.953125 240.757812 183.953125 239.441406 C 183.953125 238.125 182.890625 237.0625 181.578125 237.0625 "/>
<path style=" stroke:none;fill-rule:nonzero;fill:rgb(13.729858%,12.159729%,12.548828%);fill-opacity:1;" d="M 338.851562 284.386719 L 333.914062 281.339844 C 333.277344 280.945312 332.441406 281.144531 332.046875 281.78125 C 331.652344 282.421875 331.851562 283.261719 332.488281 283.65625 L 337.425781 286.703125 C 337.652344 286.84375 337.898438 286.90625 338.140625 286.90625 C 338.59375 286.90625 339.039062 286.675781 339.296875 286.257812 C 339.691406 285.621094 339.492188 284.777344 338.851562 284.386719 "/>
<path style=" stroke:none;fill-rule:nonzero;fill:rgb(13.729858%,12.159729%,12.548828%);fill-opacity:1;" d="M 194.453125 195.230469 L 189.515625 192.183594 C 188.882812 191.789062 188.042969 191.988281 187.652344 192.628906 C 187.257812 193.269531 187.457031 194.105469 188.097656 194.5 L 193.03125 197.550781 C 193.253906 197.6875 193.5 197.753906 193.742188 197.753906 C 194.199219 197.753906 194.644531 197.523438 194.898438 197.105469 C 195.292969 196.464844 195.09375 195.625 194.453125 195.230469 "/>
<path style=" stroke:none;fill-rule:nonzero;fill:rgb(13.729858%,12.159729%,12.548828%);fill-opacity:1;" d="M 303.910156 310.839844 C 303.550781 310.179688 302.726562 309.9375 302.066406 310.296875 C 301.40625 310.65625 301.164062 311.484375 301.527344 312.144531 L 304.304688 317.246094 C 304.550781 317.699219 305.015625 317.957031 305.5 317.957031 C 305.714844 317.957031 305.941406 317.902344 306.144531 317.789062 C 306.804688 317.425781 307.050781 316.601562 306.6875 315.941406 L 303.910156 310.839844 "/>
<path style=" stroke:none;fill-rule:nonzero;fill:rgb(13.729858%,12.159729%,12.548828%);fill-opacity:1;" d="M 222.644531 161.640625 C 222.285156 160.980469 221.457031 160.742188 220.796875 161.101562 C 220.140625 161.460938 219.898438 162.285156 220.261719 162.945312 L 223.039062 168.046875 C 223.285156 168.5 223.75 168.757812 224.230469 168.757812 C 224.453125 168.757812 224.671875 168.703125 224.878906 168.589844 C 225.539062 168.230469 225.78125 167.40625 225.421875 166.746094 L 222.644531 161.640625 "/>
<path style=" stroke:none;fill-rule:nonzero;fill:rgb(13.729858%,12.159729%,12.548828%);fill-opacity:1;" d="M 193.03125 281.339844 L 188.097656 284.386719 C 187.457031 284.777344 187.257812 285.621094 187.652344 286.257812 C 187.90625 286.675781 188.351562 286.90625 188.808594 286.90625 C 189.050781 286.90625 189.296875 286.84375 189.515625 286.703125 L 194.453125 283.65625 C 195.09375 283.265625 195.292969 282.421875 194.898438 281.785156 C 194.503906 281.144531 193.671875 280.945312 193.03125 281.339844 "/>
<path style=" stroke:none;fill-rule:nonzero;fill:rgb(13.729858%,12.159729%,12.548828%);fill-opacity:1;" d="M 337.425781 192.183594 L 332.488281 195.230469 C 331.851562 195.625 331.652344 196.464844 332.046875 197.105469 C 332.304688 197.523438 332.75 197.753906 333.207031 197.753906 C 333.449219 197.753906 333.695312 197.6875 333.914062 197.550781 L 338.851562 194.5 C 339.492188 194.105469 339.691406 193.269531 339.296875 192.628906 C 338.902344 191.988281 338.066406 191.789062 337.425781 192.183594 "/>
<path style=" stroke:none;fill-rule:nonzero;fill:rgb(13.729858%,12.159729%,12.548828%);fill-opacity:1;" d="M 224.878906 310.296875 C 224.21875 309.9375 223.394531 310.179688 223.039062 310.839844 L 220.261719 315.941406 C 219.898438 316.601562 220.140625 317.425781 220.796875 317.789062 C 221.007812 317.902344 221.230469 317.957031 221.449219 317.957031 C 221.929688 317.957031 222.398438 317.699219 222.644531 317.246094 L 225.421875 312.144531 C 225.78125 311.484375 225.539062 310.65625 224.878906 310.296875 "/>
<path style=" stroke:none;fill-rule:nonzero;fill:rgb(13.729858%,12.159729%,12.548828%);fill-opacity:1;" d="M 306.144531 161.101562 C 305.488281 160.742188 304.664062 160.980469 304.304688 161.644531 L 301.527344 166.746094 C 301.164062 167.40625 301.40625 168.230469 302.066406 168.589844 C 302.277344 168.703125 302.496094 168.757812 302.71875 168.757812 C 303.199219 168.757812 303.664062 168.5 303.910156 168.046875 L 306.6875 162.945312 C 307.050781 162.285156 306.804688 161.460938 306.144531 161.101562 "/>
<path style=" stroke:none;fill-rule:nonzero;fill:rgb(13.729858%,12.159729%,12.548828%);fill-opacity:1;" d="M 304.070312 214.242188 L 301.367188 210.320312 L 267.0625 234.0625 C 266.003906 233.460938 264.78125 233.109375 263.472656 233.109375 C 263.191406 233.109375 262.917969 233.128906 262.644531 233.160156 L 230.496094 176.453125 L 226.363281 178.808594 L 258.347656 235.230469 C 257.027344 236.546875 256.207031 238.375 256.207031 240.394531 C 256.207031 244.414062 259.460938 247.671875 263.472656 247.671875 C 267.484375 247.671875 270.742188 244.414062 270.742188 240.394531 C 270.742188 239.433594 270.550781 238.515625 270.214844 237.675781 L 304.070312 214.242188 "/>
<path style=" stroke:none;fill-rule:nonzero;fill:rgb(13.729858%,12.159729%,12.548828%);fill-opacity:1;" d="M 46.03125 162.597656 L 68.875 162.597656 L 68.875 154.246094 L 46.03125 154.246094 L 46.03125 162.597656 "/>
<path style=" stroke:none;fill-rule:nonzero;fill:rgb(13.729858%,12.159729%,12.548828%);fill-opacity:1;" d="M 103.023438 162.597656 L 125.867188 162.597656 L 125.867188 154.246094 L 103.023438 154.246094 L 103.023438 162.597656 "/>
<path style=" stroke:none;fill-rule:nonzero;fill:rgb(13.729858%,12.159729%,12.548828%);fill-opacity:1;" d="M 182.859375 154.246094 L 160.015625 154.246094 L 160.015625 162.597656 L 182.859375 162.597656 L 182.859375 154.246094 "/>
<path style=" stroke:none;fill-rule:nonzero;fill:rgb(13.729858%,12.159729%,12.548828%);fill-opacity:1;" d="M 46.03125 120.8125 L 68.875 120.8125 L 68.875 112.457031 L 46.03125 112.457031 L 46.03125 120.8125 "/>
<path style=" stroke:none;fill-rule:nonzero;fill:rgb(13.729858%,12.159729%,12.548828%);fill-opacity:1;" d="M 103.023438 120.8125 L 125.867188 120.8125 L 125.867188 112.457031 L 103.023438 112.457031 L 103.023438 120.8125 "/>
<path style=" stroke:none;fill-rule:nonzero;fill:rgb(13.729858%,12.159729%,12.548828%);fill-opacity:1;" d="M 182.859375 112.457031 L 160.015625 112.457031 L 160.015625 120.8125 L 182.859375 120.8125 L 182.859375 112.457031 "/>
<path style=" stroke:none;fill-rule:nonzero;fill:rgb(13.729858%,12.159729%,12.548828%);fill-opacity:1;" d="M 46.03125 246.222656 L 68.875 246.222656 L 68.875 237.871094 L 46.03125 237.871094 L 46.03125 246.222656 "/>
<path style=" stroke:none;fill-rule:nonzero;fill:rgb(13.729858%,12.159729%,12.548828%);fill-opacity:1;" d="M 103.023438 246.222656 L 125.867188 246.222656 L 125.867188 237.871094 L 103.023438 237.871094 L 103.023438 246.222656 "/>
<path style=" stroke:none;fill-rule:nonzero;fill:rgb(13.729858%,12.159729%,12.548828%);fill-opacity:1;" d="M 46.03125 204.433594 L 68.875 204.433594 L 68.875 196.078125 L 46.03125 196.078125 L 46.03125 204.433594 "/>
<path style=" stroke:none;fill-rule:nonzero;fill:rgb(13.729858%,12.159729%,12.548828%);fill-opacity:1;" d="M 103.023438 204.433594 L 125.867188 204.433594 L 125.867188 196.078125 L 103.023438 196.078125 L 103.023438 204.433594 "/>
<path style=" stroke:none;fill-rule:nonzero;fill:rgb(13.729858%,12.159729%,12.548828%);fill-opacity:1;" d="M 239.851562 112.457031 L 217.007812 112.457031 L 217.007812 120.8125 L 239.851562 120.8125 L 239.851562 112.457031 "/>
</g>
</svg>
