<?xml version="1.0" encoding="UTF-8"?>
<svg xmlns="http://www.w3.org/2000/svg" xmlns:xlink="http://www.w3.org/1999/xlink" width="375pt" height="374.999991pt" viewBox="0 0 375 374.999991" version="1.2">
<defs>
<clipPath id="clip1">
  <path d="M 57 322 L 82 322 L 82 325.992188 L 57 325.992188 Z M 57 322 "/>
</clipPath>
<clipPath id="clip2">
  <path d="M 312 322 L 337.425781 322 L 337.425781 325.992188 L 312 325.992188 Z M 312 322 "/>
</clipPath>
<clipPath id="clip3">
  <path d="M 90 322 L 305 322 L 305 325.992188 L 90 325.992188 Z M 90 322 "/>
</clipPath>
<clipPath id="clip4">
  <path d="M 57 67.242188 L 337.425781 67.242188 L 337.425781 309 L 57 309 Z M 57 67.242188 "/>
</clipPath>
</defs>
<g id="surface1">
<path style=" stroke:none;fill-rule:nonzero;fill:rgb(38.819885%,73.728943%,90.589905%);fill-opacity:1;" d="M 245.832031 306.476562 L 148.628906 306.476562 C 138.039062 306.476562 129.457031 297.871094 129.457031 287.253906 L 129.457031 88.210938 C 129.457031 77.59375 138.039062 68.984375 148.628906 68.984375 L 245.832031 68.984375 C 256.421875 68.984375 265.007812 77.59375 265.007812 88.210938 L 265.007812 287.253906 C 265.007812 297.867188 256.421875 306.476562 245.832031 306.476562 Z M 245.832031 306.476562 "/>
<path style=" stroke:none;fill-rule:nonzero;fill:rgb(38.819885%,46.669006%,90.589905%);fill-opacity:1;" d="M 140.808594 287.25 L 140.808594 88.210938 C 140.808594 77.59375 149.394531 68.984375 159.984375 68.984375 L 148.628906 68.984375 C 138.039062 68.984375 129.457031 77.59375 129.457031 88.210938 L 129.457031 287.253906 C 129.457031 297.871094 138.039062 306.476562 148.628906 306.476562 L 159.984375 306.476562 C 149.394531 306.476562 140.808594 297.867188 140.808594 287.25 Z M 140.808594 287.25 "/>
<path style=" stroke:none;fill-rule:nonzero;fill:rgb(38.819885%,88.62915%,90.589905%);fill-opacity:1;" d="M 253.65625 287.25 L 253.65625 88.210938 C 253.65625 77.59375 245.070312 68.984375 234.480469 68.984375 L 245.832031 68.984375 C 256.421875 68.984375 265.007812 77.59375 265.007812 88.210938 L 265.007812 287.253906 C 265.007812 297.871094 256.421875 306.476562 245.832031 306.476562 L 234.480469 306.476562 C 245.070312 306.476562 253.65625 297.867188 253.65625 287.25 Z M 253.65625 287.25 "/>
<path style=" stroke:none;fill-rule:nonzero;fill:rgb(95.689392%,38.42926%,45.878601%);fill-opacity:1;" d="M 129.457031 287.257812 C 129.457031 297.871094 138.035156 306.476562 148.625 306.476562 L 245.839844 306.476562 C 256.425781 306.476562 265.007812 297.871094 265.007812 287.257812 L 265.007812 275.902344 L 129.457031 275.902344 Z M 129.457031 287.257812 "/>
<path style=" stroke:none;fill-rule:nonzero;fill:rgb(95.689392%,18.818665%,45.878601%);fill-opacity:1;" d="M 140.808594 287.257812 L 140.808594 275.902344 L 129.457031 275.902344 L 129.457031 287.257812 C 129.457031 297.871094 138.035156 306.476562 148.625 306.476562 L 159.976562 306.476562 C 149.390625 306.476562 140.808594 297.871094 140.808594 287.257812 Z M 140.808594 287.257812 "/>
<path style=" stroke:none;fill-rule:nonzero;fill:rgb(95.689392%,38.42926%,45.878601%);fill-opacity:1;" d="M 265.007812 88.203125 C 265.007812 77.589844 256.425781 68.984375 245.839844 68.984375 L 148.625 68.984375 C 138.035156 68.984375 129.457031 77.589844 129.457031 88.203125 L 129.457031 99.558594 L 265.007812 99.558594 Z M 265.007812 88.203125 "/>
<path style=" stroke:none;fill-rule:nonzero;fill:rgb(95.689392%,18.818665%,45.878601%);fill-opacity:1;" d="M 159.976562 68.984375 L 148.625 68.984375 C 138.035156 68.984375 129.457031 77.589844 129.457031 88.203125 L 129.457031 99.558594 L 140.808594 99.558594 L 140.808594 88.203125 C 140.808594 77.589844 149.390625 68.984375 159.976562 68.984375 Z M 159.976562 68.984375 "/>
<path style=" stroke:none;fill-rule:nonzero;fill:rgb(95.689392%,53.329468%,45.878601%);fill-opacity:1;" d="M 234.488281 68.984375 L 245.839844 68.984375 C 256.425781 68.984375 265.007812 77.589844 265.007812 88.203125 L 265.007812 99.558594 L 253.65625 99.558594 L 253.65625 88.203125 C 253.65625 77.589844 245.074219 68.984375 234.488281 68.984375 Z M 234.488281 68.984375 "/>
<path style=" stroke:none;fill-rule:nonzero;fill:rgb(97.24884%,68.629456%,13.729858%);fill-opacity:1;" d="M 172.976562 87.707031 L 220.902344 87.707031 L 220.902344 80.839844 L 172.976562 80.839844 Z M 172.976562 87.707031 "/>
<path style=" stroke:none;fill-rule:nonzero;fill:rgb(97.24884%,68.629456%,13.729858%);fill-opacity:1;" d="M 202.414062 291.71875 C 202.414062 294.941406 199.808594 297.550781 196.59375 297.550781 C 193.382812 297.550781 190.777344 294.941406 190.777344 291.71875 C 190.777344 288.496094 193.382812 285.882812 196.59375 285.882812 C 199.808594 285.882812 202.414062 288.496094 202.414062 291.71875 Z M 202.414062 291.71875 "/>
<path style=" stroke:none;fill-rule:nonzero;fill:rgb(97.24884%,68.629456%,13.729858%);fill-opacity:1;" d="M 147.382812 180.816406 L 66.71875 180.816406 C 63.511719 180.816406 60.910156 178.207031 60.910156 174.988281 L 60.910156 116.503906 C 60.910156 113.285156 63.511719 110.679688 66.71875 110.679688 L 147.382812 110.679688 C 150.59375 110.679688 153.199219 113.285156 153.199219 116.503906 L 153.199219 174.988281 C 153.199219 178.207031 150.59375 180.816406 147.382812 180.816406 Z M 147.382812 180.816406 "/>
<path style=" stroke:none;fill-rule:nonzero;fill:rgb(97.24884%,43.919373%,13.729858%);fill-opacity:1;" d="M 72.261719 174.988281 L 72.261719 116.503906 C 72.261719 113.285156 74.863281 110.679688 78.074219 110.679688 L 66.71875 110.679688 C 63.507812 110.679688 60.90625 113.285156 60.90625 116.503906 L 60.90625 174.988281 C 60.90625 178.207031 63.507812 180.816406 66.71875 180.816406 L 78.074219 180.816406 C 74.863281 180.816406 72.261719 178.207031 72.261719 174.988281 Z M 72.261719 174.988281 "/>
<path style=" stroke:none;fill-rule:nonzero;fill:rgb(95.689392%,38.42926%,45.878601%);fill-opacity:1;" d="M 147.382812 264.78125 L 66.71875 264.78125 C 63.511719 264.78125 60.910156 262.171875 60.910156 258.957031 L 60.910156 200.472656 C 60.910156 197.253906 63.511719 194.644531 66.71875 194.644531 L 147.382812 194.644531 C 150.59375 194.644531 153.199219 197.253906 153.199219 200.472656 L 153.199219 258.957031 C 153.199219 262.171875 150.59375 264.78125 147.382812 264.78125 Z M 147.382812 264.78125 "/>
<path style=" stroke:none;fill-rule:nonzero;fill:rgb(95.689392%,18.818665%,45.878601%);fill-opacity:1;" d="M 72.261719 258.957031 L 72.261719 200.472656 C 72.261719 197.253906 74.863281 194.644531 78.074219 194.644531 L 66.71875 194.644531 C 63.507812 194.644531 60.90625 197.253906 60.90625 200.472656 L 60.90625 258.957031 C 60.90625 262.171875 63.507812 264.78125 66.71875 264.78125 L 78.074219 264.78125 C 74.863281 264.78125 72.261719 262.171875 72.261719 258.957031 Z M 72.261719 258.957031 "/>
<path style=" stroke:none;fill-rule:nonzero;fill:rgb(95.689392%,38.42926%,45.878601%);fill-opacity:1;" d="M 327.742188 180.816406 L 247.078125 180.816406 C 243.867188 180.816406 241.265625 178.207031 241.265625 174.988281 L 241.265625 116.503906 C 241.265625 113.285156 243.867188 110.679688 247.078125 110.679688 L 327.742188 110.679688 C 330.953125 110.679688 333.554688 113.285156 333.554688 116.503906 L 333.554688 174.988281 C 333.554688 178.207031 330.953125 180.816406 327.742188 180.816406 Z M 327.742188 180.816406 "/>
<path style=" stroke:none;fill-rule:nonzero;fill:rgb(95.689392%,53.329468%,45.878601%);fill-opacity:1;" d="M 327.742188 110.679688 L 317.039062 110.679688 C 320.246094 110.679688 322.847656 113.285156 322.847656 116.503906 L 322.847656 174.988281 C 322.847656 178.207031 320.246094 180.816406 317.039062 180.816406 L 327.742188 180.816406 C 330.953125 180.816406 333.554688 178.207031 333.554688 174.988281 L 333.554688 116.503906 C 333.554688 113.285156 330.953125 110.679688 327.742188 110.679688 Z M 327.742188 110.679688 "/>
<path style=" stroke:none;fill-rule:nonzero;fill:rgb(97.24884%,68.629456%,13.729858%);fill-opacity:1;" d="M 327.742188 264.78125 L 247.078125 264.78125 C 243.867188 264.78125 241.265625 262.171875 241.265625 258.957031 L 241.265625 200.472656 C 241.265625 197.253906 243.867188 194.644531 247.078125 194.644531 L 327.742188 194.644531 C 330.953125 194.644531 333.554688 197.253906 333.554688 200.472656 L 333.554688 258.957031 C 333.554688 262.171875 330.953125 264.78125 327.742188 264.78125 Z M 327.742188 264.78125 "/>
<path style=" stroke:none;fill-rule:nonzero;fill:rgb(97.24884%,82.749939%,13.729858%);fill-opacity:1;" d="M 327.742188 194.644531 L 316.390625 194.644531 C 319.601562 194.644531 322.203125 197.253906 322.203125 200.46875 L 322.203125 258.953125 C 322.203125 262.171875 319.601562 264.78125 316.390625 264.78125 L 327.742188 264.78125 C 330.953125 264.78125 333.554688 262.171875 333.554688 258.953125 L 333.554688 200.46875 C 333.554688 197.253906 330.953125 194.644531 327.742188 194.644531 Z M 327.742188 194.644531 "/>
<path style=" stroke:none;fill-rule:nonzero;fill:rgb(97.24884%,68.629456%,13.729858%);fill-opacity:1;" d="M 162.253906 180.816406 L 232.207031 180.816406 L 232.207031 110.679688 L 162.253906 110.679688 Z M 162.253906 180.816406 "/>
<path style=" stroke:none;fill-rule:nonzero;fill:rgb(97.24884%,68.629456%,13.729858%);fill-opacity:1;" d="M 283.882812 157.390625 L 293.976562 147.269531 C 294.816406 146.429688 294.816406 145.066406 293.976562 144.226562 L 283.882812 134.101562 C 282.527344 132.746094 280.21875 133.707031 280.21875 135.628906 L 280.21875 155.871094 C 280.21875 157.785156 282.527344 158.746094 283.882812 157.390625 Z M 283.882812 157.390625 "/>
<path style=" stroke:none;fill-rule:nonzero;fill:rgb(38.819885%,73.728943%,90.589905%);fill-opacity:1;" d="M 121.390625 124.542969 L 89.597656 124.542969 C 86.398438 124.542969 83.78125 127.164062 83.78125 130.371094 L 83.78125 165.675781 C 83.78125 166.960938 84.589844 167.335938 85.570312 166.511719 L 97.101562 156.871094 L 121.390625 156.871094 C 124.589844 156.871094 127.207031 154.246094 127.207031 151.039062 L 127.207031 130.371094 C 127.207031 127.164062 124.589844 124.542969 121.390625 124.542969 Z M 121.390625 124.542969 "/>
<path style=" stroke:none;fill-rule:nonzero;fill:rgb(38.819885%,73.728943%,90.589905%);fill-opacity:1;" d="M 259.332031 251.328125 L 270.683594 251.328125 L 270.683594 217.316406 L 259.332031 217.316406 Z M 259.332031 251.328125 "/>
<path style=" stroke:none;fill-rule:nonzero;fill:rgb(38.819885%,73.728943%,90.589905%);fill-opacity:1;" d="M 281.734375 251.328125 L 293.085938 251.328125 L 293.085938 211.292969 L 281.734375 211.292969 Z M 281.734375 251.328125 "/>
<path style=" stroke:none;fill-rule:nonzero;fill:rgb(38.819885%,73.728943%,90.589905%);fill-opacity:1;" d="M 304.136719 251.328125 L 315.492188 251.328125 L 315.492188 204.917969 L 304.136719 204.917969 Z M 304.136719 251.328125 "/>
<path style=" stroke:none;fill-rule:nonzero;fill:rgb(97.24884%,82.749939%,13.729858%);fill-opacity:1;" d="M 138.445312 226.75 C 138.445312 231.726562 134.421875 235.761719 129.457031 235.761719 C 124.492188 235.761719 120.46875 231.726562 120.46875 226.75 C 120.46875 221.773438 124.492188 217.734375 129.457031 217.734375 C 134.421875 217.734375 138.445312 221.773438 138.445312 226.75 Z M 138.445312 226.75 "/>
<path style=" stroke:none;fill-rule:nonzero;fill:rgb(38.819885%,73.728943%,90.589905%);fill-opacity:1;" d="M 124.171875 247.9375 L 103.144531 236.871094 L 103.144531 216.617188 L 124.171875 205.554688 Z M 124.171875 247.9375 "/>
<path style=" stroke:none;fill-rule:nonzero;fill:rgb(95.689392%,53.329468%,45.878601%);fill-opacity:1;" d="M 124.171875 247.9375 L 129.457031 247.9375 L 129.457031 205.554688 L 124.171875 205.554688 Z M 124.171875 247.9375 "/>
<path style=" stroke:none;fill-rule:nonzero;fill:rgb(97.24884%,68.629456%,13.729858%);fill-opacity:1;" d="M 85.460938 236.882812 L 103.144531 236.882812 L 103.144531 216.617188 L 85.460938 216.617188 Z M 85.460938 236.882812 "/>
<path style=" stroke:none;fill-rule:nonzero;fill:rgb(95.689392%,38.42926%,45.878601%);fill-opacity:1;" d="M 78.441406 231.816406 L 85.460938 231.816406 L 85.460938 221.679688 L 78.441406 221.679688 Z M 78.441406 231.816406 "/>
<path style=" stroke:none;fill-rule:nonzero;fill:rgb(38.819885%,73.728943%,90.589905%);fill-opacity:1;" d="M 90.402344 252.734375 L 98.203125 252.734375 L 98.203125 236.882812 L 90.402344 236.882812 Z M 90.402344 252.734375 "/>
<path style=" stroke:none;fill-rule:nonzero;fill:rgb(95.689392%,38.42926%,45.878601%);fill-opacity:1;" d="M 162.253906 180.816406 L 197.230469 145.746094 L 232.207031 180.816406 Z M 162.253906 180.816406 "/>
<path style=" stroke:none;fill-rule:nonzero;fill:rgb(38.819885%,73.728943%,90.589905%);fill-opacity:1;" d="M 187.855469 130.148438 C 187.855469 134.132812 184.628906 137.363281 180.65625 137.363281 C 176.683594 137.363281 173.460938 134.132812 173.460938 130.148438 C 173.460938 126.164062 176.683594 122.933594 180.65625 122.933594 C 184.628906 122.933594 187.855469 126.164062 187.855469 130.148438 Z M 187.855469 130.148438 "/>
<path style=" stroke:none;fill-rule:nonzero;fill:rgb(19.60907%,12.159729%,47.839355%);fill-opacity:1;" d="M 220.902344 79.089844 L 172.976562 79.089844 C 172.011719 79.089844 171.234375 79.875 171.234375 80.839844 L 171.234375 87.707031 C 171.234375 88.671875 172.011719 89.457031 172.976562 89.457031 L 220.902344 89.457031 C 221.863281 89.457031 222.644531 88.671875 222.644531 87.707031 L 222.644531 80.839844 C 222.644531 79.875 221.863281 79.089844 220.902344 79.089844 Z M 219.15625 85.953125 L 174.722656 85.953125 L 174.722656 82.589844 L 219.15625 82.589844 Z M 219.15625 85.953125 "/>
<path style=" stroke:none;fill-rule:nonzero;fill:rgb(19.60907%,12.159729%,47.839355%);fill-opacity:1;" d="M 196.59375 284.132812 C 192.425781 284.132812 189.03125 287.535156 189.03125 291.71875 C 189.03125 295.902344 192.425781 299.304688 196.59375 299.304688 C 200.765625 299.304688 204.160156 295.902344 204.160156 291.71875 C 204.160156 287.535156 200.765625 284.132812 196.59375 284.132812 Z M 196.59375 295.800781 C 194.347656 295.800781 192.519531 293.972656 192.519531 291.71875 C 192.519531 289.464844 194.347656 287.632812 196.59375 287.632812 C 198.84375 287.632812 200.667969 289.464844 200.667969 291.71875 C 200.667969 293.972656 198.84375 295.800781 196.59375 295.800781 Z M 196.59375 295.800781 "/>
<path style=" stroke:none;fill-rule:nonzero;fill:rgb(19.60907%,12.159729%,47.839355%);fill-opacity:1;" d="M 162.253906 182.5625 L 232.207031 182.5625 C 233.175781 182.5625 233.953125 181.785156 233.953125 180.816406 L 233.953125 110.679688 C 233.953125 109.710938 233.175781 108.929688 232.207031 108.929688 L 162.253906 108.929688 C 161.289062 108.929688 160.511719 109.710938 160.511719 110.679688 L 160.511719 180.816406 C 160.511719 181.78125 161.292969 182.5625 162.253906 182.5625 Z M 166.464844 179.066406 L 197.230469 148.21875 L 228 179.066406 Z M 230.464844 112.425781 L 230.464844 176.59375 L 198.464844 144.511719 C 197.78125 143.828125 196.679688 143.828125 196 144.511719 L 164 176.59375 L 164 112.425781 Z M 230.464844 112.425781 "/>
<path style=" stroke:none;fill-rule:nonzero;fill:rgb(19.60907%,12.159729%,47.839355%);fill-opacity:1;" d="M 162.253906 196.394531 L 232.207031 196.394531 C 233.175781 196.394531 233.953125 195.609375 233.953125 194.644531 C 233.953125 193.675781 233.175781 192.894531 232.207031 192.894531 L 162.253906 192.894531 C 161.289062 192.894531 160.511719 193.675781 160.511719 194.644531 C 160.511719 195.609375 161.292969 196.394531 162.253906 196.394531 Z M 162.253906 196.394531 "/>
<path style=" stroke:none;fill-rule:nonzero;fill:rgb(19.60907%,12.159729%,47.839355%);fill-opacity:1;" d="M 162.253906 207.730469 L 190.777344 207.730469 C 191.738281 207.730469 192.519531 206.949219 192.519531 205.984375 C 192.519531 205.015625 191.738281 204.234375 190.777344 204.234375 L 162.253906 204.234375 C 161.289062 204.234375 160.511719 205.015625 160.511719 205.984375 C 160.511719 206.949219 161.292969 207.730469 162.253906 207.730469 Z M 162.253906 207.730469 "/>
<path style=" stroke:none;fill-rule:nonzero;fill:rgb(19.60907%,12.159729%,47.839355%);fill-opacity:1;" d="M 162.253906 219.066406 L 199.703125 219.066406 C 200.667969 219.066406 201.449219 218.285156 201.449219 217.316406 C 201.449219 216.351562 200.667969 215.566406 199.703125 215.566406 L 162.253906 215.566406 C 161.289062 215.566406 160.511719 216.351562 160.511719 217.316406 C 160.511719 218.285156 161.292969 219.066406 162.253906 219.066406 Z M 162.253906 219.066406 "/>
<path style=" stroke:none;fill-rule:nonzero;fill:rgb(19.60907%,12.159729%,47.839355%);fill-opacity:1;" d="M 162.253906 230.402344 L 177.75 230.402344 C 178.710938 230.402344 179.492188 229.621094 179.492188 228.652344 C 179.492188 227.6875 178.710938 226.90625 177.75 226.90625 L 162.253906 226.90625 C 161.289062 226.90625 160.511719 227.6875 160.511719 228.652344 C 160.511719 229.621094 161.292969 230.402344 162.253906 230.402344 Z M 162.253906 230.402344 "/>
<path style=" stroke:none;fill-rule:nonzero;fill:rgb(19.60907%,12.159729%,47.839355%);fill-opacity:1;" d="M 162.253906 241.742188 L 196.59375 241.742188 C 197.558594 241.742188 198.339844 240.957031 198.339844 239.992188 C 198.339844 239.023438 197.558594 238.242188 196.59375 238.242188 L 162.253906 238.242188 C 161.289062 238.242188 160.511719 239.023438 160.511719 239.992188 C 160.511719 240.957031 161.292969 241.742188 162.253906 241.742188 Z M 162.253906 241.742188 "/>
<path style=" stroke:none;fill-rule:nonzero;fill:rgb(19.60907%,12.159729%,47.839355%);fill-opacity:1;" d="M 162.253906 253.078125 L 186.761719 253.078125 C 187.726562 253.078125 188.507812 252.292969 188.507812 251.328125 C 188.507812 250.359375 187.726562 249.578125 186.761719 249.578125 L 162.253906 249.578125 C 161.289062 249.578125 160.511719 250.359375 160.511719 251.328125 C 160.511719 252.292969 161.292969 253.078125 162.253906 253.078125 Z M 162.253906 253.078125 "/>
<path style=" stroke:none;fill-rule:nonzero;fill:rgb(19.60907%,12.159729%,47.839355%);fill-opacity:1;" d="M 162.253906 264.414062 L 204.648438 264.414062 C 205.609375 264.414062 206.390625 263.632812 206.390625 262.664062 C 206.390625 261.695312 205.609375 260.917969 204.648438 260.917969 L 162.253906 260.917969 C 161.289062 260.917969 160.511719 261.695312 160.511719 262.664062 C 160.511719 263.632812 161.292969 264.414062 162.253906 264.414062 Z M 162.253906 264.414062 "/>
<path style=" stroke:none;fill-rule:nonzero;fill:rgb(19.60907%,12.159729%,47.839355%);fill-opacity:1;" d="M 280.875 159.472656 C 281.359375 159.675781 281.863281 159.769531 282.367188 159.769531 C 283.375 159.769531 284.371094 159.375 285.117188 158.625 L 295.210938 148.507812 C 296.730469 146.980469 296.730469 144.507812 295.210938 142.984375 L 285.117188 132.867188 C 283.996094 131.746094 282.335938 131.414062 280.875 132.019531 C 279.414062 132.625 278.472656 134.039062 278.472656 135.625 L 278.472656 155.867188 C 278.472656 157.453125 279.414062 158.867188 280.875 159.472656 Z M 281.960938 135.625 C 281.960938 135.445312 282.042969 135.320312 282.210938 135.25 C 282.269531 135.226562 282.324219 135.214844 282.375 135.214844 C 282.472656 135.214844 282.566406 135.257812 282.648438 135.339844 L 292.742188 145.460938 C 292.84375 145.558594 292.863281 145.671875 292.863281 145.746094 C 292.863281 145.820312 292.84375 145.933594 292.742188 146.03125 L 282.648438 156.152344 C 282.523438 156.277344 282.375 156.308594 282.210938 156.242188 C 282.042969 156.171875 281.960938 156.046875 281.960938 155.867188 Z M 281.960938 135.625 "/>
<path style=" stroke:none;fill-rule:nonzero;fill:rgb(19.60907%,12.159729%,47.839355%);fill-opacity:1;" d="M 121.390625 122.792969 L 89.597656 122.792969 C 85.429688 122.792969 82.039062 126.195312 82.039062 130.371094 L 82.039062 165.675781 C 82.039062 167.550781 83.109375 168.253906 83.566406 168.46875 C 83.777344 168.566406 84.144531 168.695312 84.621094 168.695312 C 85.1875 168.695312 85.90625 168.511719 86.6875 167.859375 L 97.734375 158.621094 L 121.390625 158.621094 C 125.558594 158.621094 128.953125 155.21875 128.953125 151.039062 L 128.953125 130.371094 C 128.953125 126.195312 125.558594 122.792969 121.390625 122.792969 Z M 125.464844 151.039062 C 125.464844 153.289062 123.636719 155.121094 121.390625 155.121094 L 97.101562 155.121094 C 96.691406 155.121094 96.296875 155.265625 95.984375 155.527344 L 85.527344 164.273438 L 85.527344 130.371094 C 85.527344 128.121094 87.355469 126.292969 89.597656 126.292969 L 121.390625 126.292969 C 123.636719 126.292969 125.464844 128.121094 125.464844 130.371094 Z M 125.464844 151.039062 "/>
<path style=" stroke:none;fill-rule:nonzero;fill:rgb(19.60907%,12.159729%,47.839355%);fill-opacity:1;" d="M 117.125 131.675781 L 93.71875 131.675781 C 92.753906 131.675781 91.972656 132.457031 91.972656 133.425781 C 91.972656 134.390625 92.753906 135.175781 93.71875 135.175781 L 117.125 135.175781 C 118.089844 135.175781 118.871094 134.390625 118.871094 133.425781 C 118.871094 132.457031 118.089844 131.675781 117.125 131.675781 Z M 117.125 131.675781 "/>
<path style=" stroke:none;fill-rule:nonzero;fill:rgb(19.60907%,12.159729%,47.839355%);fill-opacity:1;" d="M 93.71875 141.304688 L 103.070312 141.304688 C 104.039062 141.304688 104.816406 140.519531 104.816406 139.554688 C 104.816406 138.589844 104.039062 137.804688 103.070312 137.804688 L 93.71875 137.804688 C 92.753906 137.804688 91.972656 138.589844 91.972656 139.554688 C 91.972656 140.519531 92.753906 141.304688 93.71875 141.304688 Z M 93.71875 141.304688 "/>
<path style=" stroke:none;fill-rule:nonzero;fill:rgb(19.60907%,12.159729%,47.839355%);fill-opacity:1;" d="M 117.125 143.933594 L 93.71875 143.933594 C 92.753906 143.933594 91.972656 144.714844 91.972656 145.683594 C 91.972656 146.652344 92.753906 147.433594 93.71875 147.433594 L 117.125 147.433594 C 118.089844 147.433594 118.871094 146.652344 118.871094 145.683594 C 118.871094 144.714844 118.089844 143.933594 117.125 143.933594 Z M 117.125 143.933594 "/>
<path style=" stroke:none;fill-rule:nonzero;fill:rgb(19.60907%,12.159729%,47.839355%);fill-opacity:1;" d="M 259.332031 253.078125 L 270.683594 253.078125 C 271.648438 253.078125 272.429688 252.292969 272.429688 251.328125 L 272.429688 217.316406 C 272.429688 216.351562 271.648438 215.566406 270.683594 215.566406 L 259.332031 215.566406 C 258.367188 215.566406 257.585938 216.351562 257.585938 217.316406 L 257.585938 251.328125 C 257.585938 252.292969 258.367188 253.078125 259.332031 253.078125 Z M 261.078125 219.066406 L 268.941406 219.066406 L 268.941406 249.578125 L 261.078125 249.578125 Z M 261.078125 219.066406 "/>
<path style=" stroke:none;fill-rule:nonzero;fill:rgb(19.60907%,12.159729%,47.839355%);fill-opacity:1;" d="M 281.734375 253.078125 L 293.085938 253.078125 C 294.050781 253.078125 294.832031 252.292969 294.832031 251.328125 L 294.832031 211.292969 C 294.832031 210.324219 294.050781 209.542969 293.085938 209.542969 L 281.734375 209.542969 C 280.773438 209.542969 279.988281 210.324219 279.988281 211.292969 L 279.988281 251.328125 C 279.988281 252.292969 280.773438 253.078125 281.734375 253.078125 Z M 283.480469 213.039062 L 291.34375 213.039062 L 291.34375 249.578125 L 283.480469 249.578125 Z M 283.480469 213.039062 "/>
<path style=" stroke:none;fill-rule:nonzero;fill:rgb(19.60907%,12.159729%,47.839355%);fill-opacity:1;" d="M 304.136719 253.078125 L 315.492188 253.078125 C 316.457031 253.078125 317.234375 252.292969 317.234375 251.328125 L 317.234375 204.917969 C 317.234375 203.949219 316.457031 203.167969 315.492188 203.167969 L 304.136719 203.167969 C 303.175781 203.167969 302.394531 203.949219 302.394531 204.917969 L 302.394531 251.328125 C 302.394531 252.292969 303.175781 253.078125 304.136719 253.078125 Z M 305.882812 206.664062 L 313.746094 206.664062 L 313.746094 249.578125 L 305.882812 249.578125 Z M 305.882812 206.664062 "/>
<path style=" stroke:none;fill-rule:nonzero;fill:rgb(19.60907%,12.159729%,47.839355%);fill-opacity:1;" d="M 131.199219 216.132812 L 131.199219 205.554688 C 131.199219 204.589844 130.421875 203.804688 129.457031 203.804688 L 124.171875 203.804688 C 123.878906 203.804688 123.605469 203.886719 123.359375 204.015625 L 123.359375 204.003906 L 102.714844 214.867188 L 85.460938 214.867188 C 84.496094 214.867188 83.714844 215.652344 83.714844 216.617188 L 83.714844 219.929688 L 78.441406 219.929688 C 77.480469 219.929688 76.699219 220.710938 76.699219 221.679688 L 76.699219 231.816406 C 76.699219 232.78125 77.480469 233.566406 78.441406 233.566406 L 83.714844 233.566406 L 83.714844 236.882812 C 83.714844 237.851562 84.496094 238.628906 85.460938 238.628906 L 88.65625 238.628906 L 88.65625 252.734375 C 88.65625 253.699219 89.4375 254.484375 90.402344 254.484375 L 98.203125 254.484375 C 99.167969 254.484375 99.949219 253.699219 99.949219 252.734375 L 99.949219 238.628906 L 102.734375 238.628906 L 123.363281 249.488281 L 123.363281 249.480469 C 123.605469 249.609375 123.882812 249.6875 124.175781 249.6875 L 129.457031 249.6875 C 130.425781 249.6875 131.203125 248.90625 131.203125 247.9375 L 131.203125 237.363281 C 136.304688 236.519531 140.195312 232.007812 140.195312 226.753906 C 140.191406 221.46875 136.3125 216.976562 131.199219 216.132812 Z M 80.1875 223.425781 L 83.714844 223.425781 L 83.714844 230.066406 L 80.1875 230.066406 Z M 87.207031 231.816406 L 87.207031 218.367188 L 101.398438 218.367188 L 101.398438 235.132812 L 87.207031 235.132812 Z M 96.457031 250.984375 L 92.144531 250.984375 L 92.144531 238.628906 L 96.457031 238.628906 Z M 104.890625 217.675781 L 122.429688 208.449219 L 122.429688 245.042969 L 104.890625 235.816406 Z M 127.710938 246.1875 L 125.917969 246.1875 L 125.917969 207.304688 L 127.710938 207.304688 Z M 131.199219 233.796875 L 131.199219 219.707031 C 134.367188 220.496094 136.699219 223.382812 136.699219 226.75 C 136.699219 230.105469 134.359375 233 131.199219 233.796875 Z M 131.199219 233.796875 "/>
<path style=" stroke:none;fill-rule:nonzero;fill:rgb(19.60907%,12.159729%,47.839355%);fill-opacity:1;" d="M 232.207031 204.234375 L 202.414062 204.234375 C 201.453125 204.234375 200.667969 205.015625 200.667969 205.984375 C 200.667969 206.949219 201.453125 207.730469 202.414062 207.730469 L 232.207031 207.730469 C 233.175781 207.730469 233.953125 206.949219 233.953125 205.984375 C 233.953125 205.015625 233.171875 204.234375 232.207031 204.234375 Z M 232.207031 204.234375 "/>
<path style=" stroke:none;fill-rule:nonzero;fill:rgb(19.60907%,12.159729%,47.839355%);fill-opacity:1;" d="M 232.207031 215.566406 L 210.609375 215.566406 C 209.644531 215.566406 208.863281 216.351562 208.863281 217.316406 C 208.863281 218.285156 209.644531 219.066406 210.609375 219.066406 L 232.207031 219.066406 C 233.175781 219.066406 233.953125 218.285156 233.953125 217.316406 C 233.953125 216.351562 233.171875 215.566406 232.207031 215.566406 Z M 232.207031 215.566406 "/>
<path style=" stroke:none;fill-rule:nonzero;fill:rgb(19.60907%,12.159729%,47.839355%);fill-opacity:1;" d="M 232.207031 226.90625 L 185.890625 226.90625 C 184.925781 226.90625 184.144531 227.6875 184.144531 228.652344 C 184.144531 229.621094 184.925781 230.402344 185.890625 230.402344 L 232.207031 230.402344 C 233.175781 230.402344 233.953125 229.621094 233.953125 228.652344 C 233.953125 227.6875 233.171875 226.90625 232.207031 226.90625 Z M 232.207031 226.90625 "/>
<path style=" stroke:none;fill-rule:nonzero;fill:rgb(19.60907%,12.159729%,47.839355%);fill-opacity:1;" d="M 232.207031 238.242188 L 206.539062 238.242188 C 205.574219 238.242188 204.792969 239.023438 204.792969 239.992188 C 204.792969 240.957031 205.574219 241.742188 206.539062 241.742188 L 232.207031 241.742188 C 233.175781 241.742188 233.953125 240.957031 233.953125 239.992188 C 233.953125 239.023438 233.171875 238.242188 232.207031 238.242188 Z M 232.207031 238.242188 "/>
<path style=" stroke:none;fill-rule:nonzero;fill:rgb(19.60907%,12.159729%,47.839355%);fill-opacity:1;" d="M 232.207031 249.578125 L 194.90625 249.578125 C 193.941406 249.578125 193.160156 250.359375 193.160156 251.328125 C 193.160156 252.292969 193.941406 253.078125 194.90625 253.078125 L 232.207031 253.078125 C 233.175781 253.078125 233.953125 252.292969 233.953125 251.328125 C 233.953125 250.359375 233.171875 249.578125 232.207031 249.578125 Z M 232.207031 249.578125 "/>
<path style=" stroke:none;fill-rule:nonzero;fill:rgb(19.60907%,12.159729%,47.839355%);fill-opacity:1;" d="M 232.207031 260.917969 L 212.207031 260.917969 C 211.246094 260.917969 210.460938 261.695312 210.460938 262.664062 C 210.460938 263.632812 211.246094 264.414062 212.207031 264.414062 L 232.207031 264.414062 C 233.175781 264.414062 233.953125 263.632812 233.953125 262.664062 C 233.953125 261.695312 233.171875 260.917969 232.207031 260.917969 Z M 232.207031 260.917969 "/>
<path style=" stroke:none;fill-rule:nonzero;fill:rgb(19.60907%,12.159729%,47.839355%);fill-opacity:1;" d="M 180.65625 139.113281 C 185.585938 139.113281 189.597656 135.089844 189.597656 130.148438 C 189.597656 125.203125 185.585938 121.179688 180.65625 121.179688 C 175.726562 121.179688 171.714844 125.203125 171.714844 130.148438 C 171.714844 135.089844 175.726562 139.113281 180.65625 139.113281 Z M 180.65625 124.679688 C 183.660156 124.679688 186.109375 127.136719 186.109375 130.148438 C 186.109375 133.164062 183.660156 135.617188 180.65625 135.617188 C 177.652344 135.617188 175.203125 133.164062 175.203125 130.148438 C 175.203125 127.136719 177.652344 124.679688 180.65625 124.679688 Z M 180.65625 124.679688 "/>
<g clip-path="url(#clip1)" clip-rule="nonzero">
<path style=" stroke:none;fill-rule:nonzero;fill:rgb(19.60907%,12.159729%,47.839355%);fill-opacity:1;" d="M 80.125 322.804688 L 59.1875 322.804688 C 58.222656 322.804688 57.441406 323.585938 57.441406 324.554688 C 57.441406 325.519531 58.222656 326.304688 59.1875 326.304688 L 80.125 326.304688 C 81.089844 326.304688 81.871094 325.519531 81.871094 324.554688 C 81.871094 323.585938 81.089844 322.804688 80.125 322.804688 Z M 80.125 322.804688 "/>
</g>
<g clip-path="url(#clip2)" clip-rule="nonzero">
<path style=" stroke:none;fill-rule:nonzero;fill:rgb(19.60907%,12.159729%,47.839355%);fill-opacity:1;" d="M 335.277344 322.804688 L 314.335938 322.804688 C 313.375 322.804688 312.59375 323.585938 312.59375 324.554688 C 312.59375 325.519531 313.375 326.304688 314.335938 326.304688 L 335.277344 326.304688 C 336.242188 326.304688 337.023438 325.519531 337.023438 324.554688 C 337.023438 323.585938 336.242188 322.804688 335.277344 322.804688 Z M 335.277344 322.804688 "/>
</g>
<g clip-path="url(#clip3)" clip-rule="nonzero">
<path style=" stroke:none;fill-rule:nonzero;fill:rgb(19.60907%,12.159729%,47.839355%);fill-opacity:1;" d="M 302.476562 322.804688 L 91.988281 322.804688 C 91.023438 322.804688 90.242188 323.585938 90.242188 324.554688 C 90.242188 325.519531 91.023438 326.304688 91.988281 326.304688 L 302.476562 326.304688 C 303.441406 326.304688 304.21875 325.519531 304.21875 324.554688 C 304.21875 323.585938 303.4375 322.804688 302.476562 322.804688 Z M 302.476562 322.804688 "/>
</g>
<g clip-path="url(#clip4)" clip-rule="nonzero">
<path style=" stroke:none;fill-rule:nonzero;fill:rgb(19.60907%,12.159729%,47.839355%);fill-opacity:1;" d="M 59.1875 308.226562 L 335.277344 308.226562 C 336.242188 308.226562 337.023438 307.441406 337.023438 306.476562 C 337.023438 305.507812 336.242188 304.726562 335.277344 304.726562 L 257.378906 304.726562 C 263.019531 300.96875 266.75 294.546875 266.75 287.257812 L 266.75 266.535156 L 327.742188 266.535156 C 331.910156 266.535156 335.296875 263.136719 335.296875 258.957031 L 335.296875 200.472656 C 335.296875 196.292969 331.910156 192.898438 327.742188 192.898438 L 266.75 192.898438 L 266.75 182.566406 L 327.742188 182.566406 C 331.910156 182.566406 335.296875 179.167969 335.296875 174.992188 L 335.296875 116.503906 C 335.296875 112.328125 331.910156 108.929688 327.742188 108.929688 L 266.75 108.929688 L 266.75 88.203125 C 266.75 76.640625 257.367188 67.238281 245.835938 67.238281 L 148.625 67.238281 C 137.089844 67.238281 127.710938 76.640625 127.710938 88.203125 L 127.710938 108.929688 L 66.71875 108.929688 C 62.554688 108.929688 59.164062 112.328125 59.164062 116.507812 L 59.164062 174.988281 C 59.164062 179.164062 62.554688 182.5625 66.71875 182.5625 L 127.710938 182.5625 L 127.710938 192.894531 L 66.71875 192.894531 C 62.554688 192.894531 59.164062 196.292969 59.164062 200.46875 L 59.164062 258.953125 C 59.164062 263.132812 62.554688 266.53125 66.71875 266.53125 L 127.710938 266.53125 L 127.710938 287.257812 C 127.710938 294.542969 131.441406 300.964844 137.082031 304.726562 L 59.1875 304.726562 C 58.222656 304.726562 57.441406 305.507812 57.441406 306.472656 C 57.441406 307.441406 58.222656 308.226562 59.1875 308.226562 Z M 148.628906 304.726562 C 139.019531 304.726562 131.199219 296.886719 131.199219 287.253906 L 131.199219 277.648438 L 263.261719 277.648438 L 263.261719 287.253906 C 263.261719 296.886719 255.445312 304.726562 245.832031 304.726562 Z M 331.808594 200.46875 L 331.808594 258.953125 C 331.808594 261.203125 329.984375 263.03125 327.742188 263.03125 L 247.078125 263.03125 C 244.835938 263.03125 243.011719 261.203125 243.011719 258.953125 L 243.011719 200.46875 C 243.011719 198.222656 244.835938 196.394531 247.078125 196.394531 L 327.742188 196.394531 C 329.984375 196.394531 331.808594 198.222656 331.808594 200.46875 Z M 331.808594 116.503906 L 331.808594 174.988281 C 331.808594 177.238281 329.984375 179.066406 327.742188 179.066406 L 247.078125 179.066406 C 244.835938 179.066406 243.011719 177.238281 243.011719 174.988281 L 243.011719 116.503906 C 243.011719 114.253906 244.835938 112.425781 247.078125 112.425781 L 327.742188 112.425781 C 329.984375 112.425781 331.808594 114.253906 331.808594 116.503906 Z M 131.199219 88.203125 C 131.199219 78.570312 139.019531 70.730469 148.625 70.730469 L 245.832031 70.730469 C 255.445312 70.730469 263.261719 78.574219 263.261719 88.207031 L 263.261719 97.808594 L 131.199219 97.808594 Z M 62.65625 174.988281 L 62.65625 116.503906 C 62.65625 114.253906 64.476562 112.425781 66.71875 112.425781 L 147.382812 112.425781 C 149.625 112.425781 151.453125 114.253906 151.453125 116.503906 L 151.453125 174.988281 C 151.453125 177.238281 149.625 179.066406 147.382812 179.066406 L 66.71875 179.066406 C 64.476562 179.066406 62.65625 177.238281 62.65625 174.988281 Z M 62.65625 258.957031 L 62.65625 200.472656 C 62.65625 198.222656 64.476562 196.394531 66.71875 196.394531 L 147.382812 196.394531 C 149.625 196.394531 151.453125 198.222656 151.453125 200.472656 L 151.453125 258.957031 C 151.453125 261.203125 149.625 263.03125 147.382812 263.03125 L 66.71875 263.03125 C 64.476562 263.03125 62.65625 261.203125 62.65625 258.957031 Z M 147.382812 266.53125 C 151.554688 266.53125 154.941406 263.132812 154.941406 258.957031 L 154.941406 200.472656 C 154.941406 196.292969 151.554688 192.894531 147.382812 192.894531 L 131.199219 192.894531 L 131.199219 182.566406 L 147.382812 182.566406 C 151.554688 182.566406 154.941406 179.167969 154.941406 174.988281 L 154.941406 116.503906 C 154.941406 112.328125 151.554688 108.929688 147.382812 108.929688 L 131.199219 108.929688 L 131.199219 101.308594 L 263.261719 101.308594 L 263.261719 108.929688 L 247.078125 108.929688 C 242.910156 108.929688 239.519531 112.328125 239.519531 116.503906 L 239.519531 174.988281 C 239.519531 179.164062 242.910156 182.5625 247.078125 182.5625 L 263.261719 182.5625 L 263.261719 192.894531 L 247.078125 192.894531 C 242.910156 192.894531 239.519531 196.292969 239.519531 200.46875 L 239.519531 258.953125 C 239.519531 263.132812 242.910156 266.527344 247.078125 266.527344 L 263.261719 266.527344 L 263.261719 274.148438 L 131.199219 274.148438 L 131.199219 266.527344 L 147.382812 266.527344 Z M 147.382812 266.53125 "/>
</g>
</g>
</svg>
