<?xml version="1.0" encoding="UTF-8"?>
<svg xmlns="http://www.w3.org/2000/svg" xmlns:xlink="http://www.w3.org/1999/xlink" width="375pt" height="374.999991pt" viewBox="0 0 375 374.999991" version="1.2">
<defs>
<clipPath id="clip1">
  <path d="M 57 65.585938 L 328 65.585938 L 328 337.835938 L 57 337.835938 Z M 57 65.585938 "/>
</clipPath>
</defs>
<g id="surface1">
<g clip-path="url(#clip1)" clip-rule="nonzero">
<path style=" stroke:none;fill-rule:nonzero;fill:rgb(0%,0%,0%);fill-opacity:1;" d="M 78.382812 229.140625 L 306.605469 229.140625 L 318.460938 323.976562 C 318.617188 325.292969 318.226562 326.570312 317.359375 327.546875 C 316.488281 328.539062 315.28125 329.089844 313.953125 329.089844 L 71.035156 329.089844 C 69.71875 329.089844 68.496094 328.539062 67.625 327.546875 C 66.757812 326.570312 66.367188 325.292969 66.527344 323.976562 Z M 78.914062 79.214844 C 78.914062 76.710938 80.953125 74.671875 83.457031 74.671875 L 301.527344 74.671875 C 304.03125 74.671875 306.070312 76.710938 306.070312 79.214844 L 306.070312 83.757812 L 78.914062 83.757812 Z M 78.914062 210.96875 L 306.070312 210.96875 L 306.070312 220.054688 L 78.914062 220.054688 Z M 306.070312 201.878906 L 78.914062 201.878906 L 78.914062 92.84375 L 306.070312 92.84375 Z M 71.035156 338.175781 L 313.953125 338.175781 C 317.855469 338.175781 321.582031 336.488281 324.171875 333.5625 C 326.746094 330.632812 327.953125 326.730469 327.472656 322.859375 L 315.15625 224.3125 L 315.15625 79.214844 C 315.15625 71.691406 309.054688 65.585938 301.527344 65.585938 L 83.457031 65.585938 C 75.933594 65.585938 69.828125 71.691406 69.828125 79.214844 L 69.828125 224.3125 L 57.511719 322.859375 C 57.03125 326.730469 58.238281 330.632812 60.8125 333.5625 C 63.402344 336.488281 67.128906 338.175781 71.035156 338.175781 "/>
</g>
<path style=" stroke:none;fill-rule:nonzero;fill:rgb(0%,0%,0%);fill-opacity:1;" d="M 260.640625 151.90625 L 269.726562 151.90625 L 269.726562 170.078125 L 260.640625 170.078125 Z M 242.46875 142.820312 L 242.46875 124.648438 L 251.554688 124.648438 L 251.554688 142.820312 Z M 237.925781 170.078125 C 235.421875 170.078125 233.382812 172.121094 233.382812 174.621094 C 233.382812 177.125 235.421875 179.164062 237.925781 179.164062 L 251.554688 179.164062 L 251.554688 188.25 C 251.554688 190.753906 253.59375 192.792969 256.097656 192.792969 C 258.597656 192.792969 260.640625 190.753906 260.640625 188.25 L 260.640625 179.164062 L 274.269531 179.164062 C 276.773438 179.164062 278.8125 177.125 278.8125 174.621094 L 278.8125 147.363281 C 278.8125 144.859375 276.773438 142.820312 274.269531 142.820312 L 260.640625 142.820312 L 260.640625 124.648438 L 274.269531 124.648438 C 276.773438 124.648438 278.8125 122.605469 278.8125 120.105469 C 278.8125 117.601562 276.773438 115.558594 274.269531 115.558594 L 260.640625 115.558594 L 260.640625 106.472656 C 260.640625 103.972656 258.597656 101.929688 256.097656 101.929688 C 253.59375 101.929688 251.554688 103.972656 251.554688 106.472656 L 251.554688 115.558594 L 237.925781 115.558594 C 235.421875 115.558594 233.382812 117.601562 233.382812 120.105469 L 233.382812 147.363281 C 233.382812 149.863281 235.421875 151.90625 237.925781 151.90625 L 251.554688 151.90625 L 251.554688 170.078125 L 237.925781 170.078125 "/>
<path style=" stroke:none;fill-rule:nonzero;fill:rgb(0%,0%,0%);fill-opacity:1;" d="M 194.054688 170.078125 L 208.785156 170.078125 L 202.519531 176.34375 C 200.746094 178.117188 200.746094 180.992188 202.519531 182.765625 C 203.40625 183.65625 204.558594 184.097656 205.730469 184.097656 C 206.886719 184.097656 208.054688 183.65625 208.945312 182.765625 L 222.964844 168.746094 C 223.371094 168.320312 223.710938 167.824219 223.941406 167.273438 C 224.402344 166.15625 224.402344 164.914062 223.941406 163.796875 C 223.710938 163.246094 223.371094 162.75 222.964844 162.324219 L 209.726562 149.085938 C 207.949219 147.308594 205.074219 147.308594 203.300781 149.085938 C 201.527344 150.859375 201.527344 153.734375 203.300781 155.507812 L 208.785156 160.992188 L 194.054688 160.992188 C 191.535156 160.992188 189.511719 163.03125 189.511719 165.535156 C 189.511719 168.039062 191.535156 170.078125 194.054688 170.078125 "/>
<path style=" stroke:none;fill-rule:nonzero;fill:rgb(0%,0%,0%);fill-opacity:1;" d="M 110.714844 111.015625 L 156.148438 111.015625 L 156.148438 138.277344 L 110.714844 138.277344 Z M 106.171875 147.363281 L 160.691406 147.363281 C 163.191406 147.363281 165.234375 145.320312 165.234375 142.820312 L 165.234375 106.472656 C 165.234375 103.972656 163.191406 101.929688 160.691406 101.929688 L 106.171875 101.929688 C 103.671875 101.929688 101.628906 103.972656 101.628906 106.472656 L 101.628906 142.820312 C 101.628906 145.320312 103.671875 147.363281 106.171875 147.363281 "/>
<path style=" stroke:none;fill-rule:nonzero;fill:rgb(0%,0%,0%);fill-opacity:1;" d="M 97.085938 170.078125 C 97.085938 167.578125 99.125 165.535156 101.628906 165.535156 L 106.171875 165.535156 L 106.171875 183.707031 L 97.085938 183.707031 Z M 115.257812 165.535156 L 151.605469 165.535156 L 151.605469 183.707031 L 115.257812 183.707031 Z M 169.777344 170.078125 L 169.777344 183.707031 L 160.691406 183.707031 L 160.691406 165.535156 L 165.234375 165.535156 C 167.734375 165.535156 169.777344 167.578125 169.777344 170.078125 Z M 178.863281 192.792969 L 178.863281 170.078125 C 178.863281 162.554688 172.757812 156.449219 165.234375 156.449219 L 101.628906 156.449219 C 94.105469 156.449219 88 162.554688 88 170.078125 L 88 192.792969 L 178.863281 192.792969 "/>
<path style=" stroke:none;fill-rule:nonzero;fill:rgb(0%,0%,0%);fill-opacity:1;" d="M 119.800781 129.191406 L 128.886719 129.191406 L 128.886719 120.105469 L 119.800781 120.105469 L 119.800781 129.191406 "/>
<path style=" stroke:none;fill-rule:nonzero;fill:rgb(0%,0%,0%);fill-opacity:1;" d="M 137.972656 129.191406 L 147.0625 129.191406 L 147.0625 120.105469 L 137.972656 120.105469 L 137.972656 129.191406 "/>
<path style=" stroke:none;fill-rule:nonzero;fill:rgb(0%,0%,0%);fill-opacity:1;" d="M 96.484375 251.855469 L 233.984375 251.855469 L 241.773438 306.375 L 88.691406 306.375 Z M 83.457031 315.460938 L 247.011719 315.460938 C 248.324219 315.460938 249.582031 314.890625 250.4375 313.898438 C 251.304688 312.90625 251.695312 311.574219 251.5 310.277344 L 242.414062 246.671875 C 242.09375 244.4375 240.179688 242.769531 237.925781 242.769531 L 92.542969 242.769531 C 90.289062 242.769531 88.371094 244.4375 88.054688 246.671875 L 78.964844 310.277344 C 78.769531 311.574219 79.160156 312.90625 80.03125 313.898438 C 80.882812 314.890625 82.144531 315.460938 83.457031 315.460938 "/>
<path style=" stroke:none;fill-rule:nonzero;fill:rgb(0%,0%,0%);fill-opacity:1;" d="M 284.351562 251.855469 L 286.621094 260.941406 L 273.277344 260.941406 L 271.003906 251.855469 Z M 265.324219 266.585938 C 265.820312 268.609375 267.632812 270.027344 269.726562 270.027344 L 292.441406 270.027344 C 293.84375 270.027344 295.15625 269.390625 296.027344 268.269531 C 296.878906 267.171875 297.179688 265.734375 296.84375 264.386719 L 292.300781 246.210938 C 291.804688 244.1875 289.992188 242.769531 287.898438 242.769531 L 265.183594 242.769531 C 263.78125 242.769531 262.46875 243.40625 261.597656 244.527344 C 260.746094 245.625 260.445312 247.0625 260.78125 248.414062 L 265.324219 266.585938 "/>
<path style=" stroke:none;fill-rule:nonzero;fill:rgb(0%,0%,0%);fill-opacity:1;" d="M 293.4375 297.289062 L 295.707031 306.375 L 282.363281 306.375 L 280.089844 297.289062 Z M 270.683594 289.957031 C 269.832031 291.058594 269.53125 292.496094 269.867188 293.84375 L 274.410156 312.015625 C 274.910156 314.039062 276.71875 315.460938 278.8125 315.460938 L 301.527344 315.460938 C 302.929688 315.460938 304.242188 314.820312 305.113281 313.703125 C 305.964844 312.601562 306.265625 311.164062 305.929688 309.816406 L 301.386719 291.644531 C 300.890625 289.621094 299.078125 288.199219 296.984375 288.199219 L 274.269531 288.199219 C 272.867188 288.199219 271.554688 288.839844 270.683594 289.957031 "/>
<path style=" stroke:none;fill-rule:nonzero;fill:rgb(0%,0%,0%);fill-opacity:1;" d="M 128.886719 260.941406 L 110.714844 260.941406 C 108.214844 260.941406 106.171875 262.984375 106.171875 265.484375 C 106.171875 267.988281 108.214844 270.027344 110.714844 270.027344 L 128.886719 270.027344 C 131.390625 270.027344 133.429688 267.988281 133.429688 265.484375 C 133.429688 262.984375 131.390625 260.941406 128.886719 260.941406 "/>
<path style=" stroke:none;fill-rule:nonzero;fill:rgb(0%,0%,0%);fill-opacity:1;" d="M 156.148438 270.027344 L 174.320312 270.027344 C 176.820312 270.027344 178.863281 267.988281 178.863281 265.484375 C 178.863281 262.984375 176.820312 260.941406 174.320312 260.941406 L 156.148438 260.941406 C 153.644531 260.941406 151.605469 262.984375 151.605469 265.484375 C 151.605469 267.988281 153.644531 270.027344 156.148438 270.027344 "/>
<path style=" stroke:none;fill-rule:nonzero;fill:rgb(0%,0%,0%);fill-opacity:1;" d="M 219.75 270.027344 C 222.253906 270.027344 224.292969 267.988281 224.292969 265.484375 C 224.292969 262.984375 222.253906 260.941406 219.75 260.941406 L 201.578125 260.941406 C 199.078125 260.941406 197.035156 262.984375 197.035156 265.484375 C 197.035156 267.988281 199.078125 270.027344 201.578125 270.027344 L 219.75 270.027344 "/>
<path style=" stroke:none;fill-rule:nonzero;fill:rgb(0%,0%,0%);fill-opacity:1;" d="M 124.34375 288.199219 L 106.171875 288.199219 C 103.671875 288.199219 101.628906 290.242188 101.628906 292.746094 C 101.628906 295.246094 103.671875 297.289062 106.171875 297.289062 L 124.34375 297.289062 C 126.847656 297.289062 128.886719 295.246094 128.886719 292.746094 C 128.886719 290.242188 126.847656 288.199219 124.34375 288.199219 "/>
<path style=" stroke:none;fill-rule:nonzero;fill:rgb(0%,0%,0%);fill-opacity:1;" d="M 178.863281 288.199219 L 151.605469 288.199219 C 149.101562 288.199219 147.0625 290.242188 147.0625 292.746094 C 147.0625 295.246094 149.101562 297.289062 151.605469 297.289062 L 178.863281 297.289062 C 181.367188 297.289062 183.40625 295.246094 183.40625 292.746094 C 183.40625 290.242188 181.367188 288.199219 178.863281 288.199219 "/>
<path style=" stroke:none;fill-rule:nonzero;fill:rgb(0%,0%,0%);fill-opacity:1;" d="M 224.292969 288.199219 L 206.121094 288.199219 C 203.621094 288.199219 201.578125 290.242188 201.578125 292.746094 C 201.578125 295.246094 203.621094 297.289062 206.121094 297.289062 L 224.292969 297.289062 C 226.796875 297.289062 228.839844 295.246094 228.839844 292.746094 C 228.839844 290.242188 226.796875 288.199219 224.292969 288.199219 "/>
</g>
</svg>
