<?xml version="1.0" encoding="UTF-8"?>
<svg xmlns="http://www.w3.org/2000/svg" xmlns:xlink="http://www.w3.org/1999/xlink" width="375pt" height="374.999991pt" viewBox="0 0 375 374.999991" version="1.2">
<defs>
<clipPath id="clip1">
  <path d="M 72.011719 51.230469 L 313.910156 51.230469 L 313.910156 337.730469 L 72.011719 337.730469 Z M 72.011719 51.230469 "/>
</clipPath>
</defs>
<g id="surface1">
<g clip-path="url(#clip1)" clip-rule="nonzero">
<path style=" stroke:none;fill-rule:nonzero;fill:rgb(0%,0%,0%);fill-opacity:1;" d="M 307.933594 56.972656 C 304.171875 53.195312 299.210938 51.230469 293.945312 51.230469 L 156.042969 51.230469 C 150.777344 51.230469 145.816406 53.347656 142.054688 56.972656 C 138.445312 60.597656 136.339844 65.734375 136.339844 71.023438 L 136.339844 162.421875 L 125.8125 164.988281 L 101.75 164.988281 C 85.507812 164.988281 72.273438 178.433594 72.273438 194.75 C 72.273438 207.589844 80.546875 218.617188 91.976562 222.699219 L 91.976562 254.121094 C 91.976562 258.046875 93.480469 261.824219 96.335938 264.542969 C 99.195312 267.414062 102.804688 268.925781 106.714844 268.925781 C 110.625 268.925781 114.382812 267.414062 117.089844 264.542969 C 119.949219 261.675781 121.453125 258.046875 121.453125 253.96875 L 121.453125 224.207031 L 125.8125 224.207031 L 136.339844 226.777344 L 136.339844 318.175781 C 136.339844 323.3125 138.445312 328.449219 142.054688 332.226562 C 145.816406 336 150.777344 337.964844 156.042969 337.964844 L 293.945312 337.964844 C 299.210938 337.964844 304.171875 335.851562 307.933594 332.226562 C 311.542969 328.597656 313.648438 323.460938 313.648438 318.175781 L 313.648438 71.023438 C 313.648438 65.734375 311.691406 60.75 307.933594 56.972656 Z M 149.125 64.070312 C 150.929688 62.257812 153.484375 61.203125 156.042969 61.203125 L 293.945312 61.203125 C 296.652344 61.203125 299.058594 62.257812 300.863281 64.070312 C 302.667969 65.886719 303.722656 68.453125 303.722656 71.023438 L 303.722656 80.992188 L 146.117188 80.992188 L 146.117188 71.023438 C 146.117188 68.453125 147.167969 65.886719 149.125 64.070312 Z M 82.199219 194.75 C 82.199219 183.871094 91.074219 174.960938 101.902344 174.960938 L 121.601562 174.960938 L 121.601562 214.539062 L 101.902344 214.539062 C 90.921875 214.539062 82.199219 205.625 82.199219 194.75 Z M 111.675781 254.121094 C 111.675781 255.480469 111.226562 256.6875 110.171875 257.59375 C 108.367188 259.410156 105.058594 259.410156 103.253906 257.59375 C 102.351562 256.6875 101.75 255.328125 101.75 254.121094 L 101.75 224.359375 L 111.675781 224.359375 Z M 131.378906 173.902344 L 200.40625 156.527344 L 200.40625 232.96875 L 131.378906 215.597656 Z M 204.164062 244.148438 C 204.617188 244.300781 204.917969 244.300781 205.367188 244.300781 C 206.421875 244.300781 207.472656 244 208.375 243.242188 C 209.578125 242.335938 210.332031 240.828125 210.332031 239.316406 L 210.332031 150.183594 C 210.332031 148.671875 209.578125 147.160156 208.375 146.253906 C 207.171875 145.347656 205.667969 145.046875 204.164062 145.347656 L 146.117188 160.003906 L 146.117188 90.8125 L 303.871094 90.8125 L 303.871094 283.882812 L 146.117188 283.882812 L 146.117188 229.496094 Z M 300.863281 325.425781 C 299.058594 327.238281 296.503906 328.296875 293.945312 328.296875 L 156.042969 328.296875 C 153.484375 328.296875 150.929688 327.238281 149.125 325.425781 C 147.320312 323.613281 146.265625 321.046875 146.265625 318.476562 L 146.265625 293.703125 L 303.871094 293.703125 L 303.871094 318.476562 C 303.871094 321.046875 302.820312 323.613281 300.863281 325.425781 Z M 300.863281 325.425781 "/>
</g>
<path style=" stroke:none;fill-rule:nonzero;fill:rgb(0%,0%,0%);fill-opacity:1;" d="M 217.550781 76.007812 L 229.882812 76.007812 C 232.589844 76.007812 234.84375 73.742188 234.84375 71.023438 C 234.84375 68.300781 232.589844 66.035156 229.882812 66.035156 L 217.550781 66.035156 C 214.84375 66.035156 212.585938 68.300781 212.585938 71.023438 C 212.585938 73.742188 214.84375 76.007812 217.550781 76.007812 Z M 217.550781 76.007812 "/>
<path style=" stroke:none;fill-rule:nonzero;fill:rgb(0%,0%,0%);fill-opacity:1;" d="M 237.402344 311.074219 C 237.402344 311.886719 237.320312 312.695312 237.164062 313.492188 C 237.007812 314.289062 236.773438 315.0625 236.460938 315.816406 C 236.152344 316.566406 235.773438 317.28125 235.324219 317.957031 C 234.875 318.632812 234.363281 319.257812 233.789062 319.835938 C 233.214844 320.410156 232.59375 320.921875 231.921875 321.375 C 231.246094 321.828125 230.535156 322.207031 229.789062 322.519531 C 229.039062 322.832031 228.269531 323.066406 227.476562 323.226562 C 226.679688 323.382812 225.878906 323.460938 225.070312 323.460938 C 224.257812 323.460938 223.457031 323.382812 222.664062 323.226562 C 221.871094 323.066406 221.097656 322.832031 220.351562 322.519531 C 219.601562 322.207031 218.890625 321.828125 218.21875 321.375 C 217.546875 320.921875 216.921875 320.410156 216.347656 319.835938 C 215.777344 319.257812 215.265625 318.632812 214.816406 317.957031 C 214.367188 317.28125 213.984375 316.566406 213.675781 315.816406 C 213.367188 315.0625 213.132812 314.289062 212.972656 313.492188 C 212.816406 312.695312 212.738281 311.886719 212.738281 311.074219 C 212.738281 310.261719 212.816406 309.457031 212.972656 308.65625 C 213.132812 307.859375 213.367188 307.085938 213.675781 306.335938 C 213.984375 305.582031 214.367188 304.867188 214.816406 304.191406 C 215.265625 303.515625 215.777344 302.890625 216.347656 302.316406 C 216.921875 301.738281 217.546875 301.226562 218.21875 300.773438 C 218.890625 300.324219 219.601562 299.941406 220.351562 299.628906 C 221.097656 299.320312 221.871094 299.082031 222.664062 298.925781 C 223.457031 298.765625 224.257812 298.6875 225.070312 298.6875 C 225.878906 298.6875 226.679688 298.765625 227.476562 298.925781 C 228.269531 299.082031 229.039062 299.320312 229.789062 299.628906 C 230.535156 299.941406 231.246094 300.324219 231.921875 300.773438 C 232.59375 301.226562 233.214844 301.738281 233.789062 302.316406 C 234.363281 302.890625 234.875 303.515625 235.324219 304.191406 C 235.773438 304.867188 236.152344 305.582031 236.460938 306.335938 C 236.773438 307.085938 237.007812 307.859375 237.164062 308.65625 C 237.320312 309.457031 237.402344 310.261719 237.402344 311.074219 Z M 237.402344 311.074219 "/>
</g>
</svg>
